<svg id="svg" version="1.1" xmlns="http://www.w3.org/2000/svg" xmlns:xlink="http://www.w3.org/1999/xlink" width="400" height="333.33333333333337" viewBox="0, 0, 400,333.33333333333337"><g id="svgg"><path id="path0" d="M183.333 26.542 C 177.901 27.233,174.189 28.392,167.605 31.452 C 166.562 31.937,165.572 32.333,165.404 32.333 C 164.865 32.333,154.231 39.357,152.333 40.966 C 151.325 41.822,149.825 43.034,149.000 43.661 C 145.454 46.353,134.076 57.890,130.912 62.000 C 130.136 63.008,128.592 64.958,127.481 66.333 C 125.663 68.583,120.881 75.110,119.167 77.683 C 116.344 81.918,114.048 85.584,112.612 88.150 C 111.683 89.809,110.596 91.617,110.196 92.167 C 109.795 92.717,108.551 94.967,107.430 97.167 C 106.309 99.367,104.850 102.125,104.188 103.295 C 103.526 104.466,102.590 106.416,102.106 107.629 C 101.623 108.841,100.570 111.183,99.766 112.833 C 98.962 114.483,97.570 117.783,96.672 120.167 C 95.774 122.550,94.644 125.475,94.162 126.667 C 92.505 130.757,91.539 133.909,87.156 149.526 C 84.964 157.339,83.383 175.103,83.990 185.095 C 85.420 208.621,92.036 219.217,111.185 228.649 C 115.712 230.878,126.491 234.676,131.631 235.853 C 133.576 236.298,137.117 237.120,139.500 237.680 C 141.883 238.240,144.983 238.907,146.387 239.162 C 147.792 239.417,149.538 239.786,150.266 239.982 C 150.995 240.178,154.195 240.566,157.379 240.845 C 160.562 241.123,164.442 241.486,166.000 241.651 C 180.886 243.231,203.103 243.098,221.083 241.321 C 231.673 240.275,234.017 239.916,241.833 238.146 C 255.461 235.060,258.256 234.209,269.617 229.687 C 271.769 228.830,274.528 227.457,275.667 226.676 C 276.125 226.361,277.547 225.545,278.826 224.861 C 292.355 217.630,299.338 202.632,299.325 180.833 C 299.316 166.658,295.517 148.327,289.652 134.167 C 288.893 132.333,287.750 129.483,287.112 127.833 C 284.593 121.320,276.134 104.627,273.016 100.015 C 272.328 98.999,271.131 97.042,270.355 95.667 C 267.990 91.476,262.075 82.851,257.830 77.404 C 256.728 75.990,254.967 73.708,253.916 72.333 C 251.991 69.816,250.097 67.521,246.902 63.833 C 241.917 58.081,229.484 46.185,224.421 42.323 C 220.659 39.454,220.440 39.297,217.333 37.261 C 211.017 33.122,208.890 32.006,201.500 28.951 C 196.906 27.052,188.298 25.910,183.333 26.542 M187.833 57.093 C 188.750 58.666,191.075 62.539,193.000 65.699 C 199.631 76.584,200.667 78.453,200.667 79.534 C 200.667 80.586,199.560 82.882,192.489 96.500 C 186.615 107.811,185.559 110.089,185.922 110.661 C 186.201 111.102,188.415 111.167,203.279 111.167 L 220.315 111.167 221.145 112.000 C 221.602 112.458,222.844 114.214,223.905 115.902 C 226.818 120.536,229.974 125.673,231.833 128.807 C 232.750 130.352,234.227 132.781,235.115 134.205 C 237.396 137.863,237.418 138.336,235.467 141.893 C 233.939 144.678,230.471 151.398,224.272 163.591 C 222.041 167.977,221.583 169.126,221.876 169.591 C 222.210 170.121,223.618 170.180,239.444 170.333 C 256.091 170.495,256.670 170.522,257.308 171.167 C 257.943 171.809,262.111 178.519,264.658 183.000 C 265.336 184.192,266.346 185.917,266.903 186.833 C 272.634 196.259,272.572 196.120,271.250 196.646 C 270.644 196.887,222.354 197.703,210.382 197.674 L 207.265 197.667 206.096 196.417 C 204.921 195.160,201.607 190.174,200.501 188.000 C 200.175 187.358,198.981 185.408,197.847 183.667 C 196.714 181.925,195.314 179.648,194.737 178.606 C 194.159 177.565,193.001 175.690,192.162 174.440 C 191.324 173.189,190.554 171.833,190.451 171.425 C 190.277 170.730,197.704 155.312,199.328 153.000 C 199.649 152.542,200.025 151.792,200.163 151.333 C 200.301 150.875,201.521 148.339,202.874 145.698 C 205.376 140.813,205.823 139.186,204.750 138.876 C 204.429 138.784,196.892 138.671,188.000 138.626 C 169.009 138.530,170.425 138.791,168.126 134.963 C 167.202 133.425,165.606 130.817,164.578 129.167 C 163.550 127.517,162.296 125.492,161.790 124.667 C 161.285 123.842,160.255 122.192,159.500 121.000 C 156.188 115.768,154.667 112.981,154.667 112.150 C 154.667 111.413,162.740 94.684,166.322 88.000 C 166.863 86.992,169.364 82.042,171.880 77.000 C 185.459 49.797,184.372 51.154,187.833 57.093 M150.837 119.417 C 152.489 121.735,155.755 126.861,156.457 128.237 C 156.904 129.115,157.683 130.433,158.186 131.167 C 159.106 132.507,163.067 139.202,164.595 142.000 L 165.414 143.500 161.825 150.500 C 154.528 164.735,152.727 168.209,151.715 170.000 C 149.397 174.101,148.981 173.999,167.816 173.969 C 178.149 173.953,183.493 174.062,183.936 174.299 C 184.643 174.677,186.385 177.297,189.170 182.167 C 190.113 183.817,191.451 186.067,192.143 187.167 C 197.446 195.599,198.905 198.607,197.969 199.186 C 197.617 199.403,191.989 199.507,174.774 199.616 C 164.184 199.683,164.312 199.509,169.338 207.000 C 171.299 209.923,173.667 214.256,173.667 214.922 C 173.667 216.308,173.416 216.333,159.723 216.333 L 146.579 216.333 145.539 215.224 C 144.968 214.613,143.088 211.726,141.361 208.807 C 139.635 205.888,137.460 202.343,136.528 200.928 C 133.631 196.531,130.683 191.780,125.508 183.167 C 124.626 181.700,123.327 179.590,122.620 178.478 C 121.913 177.366,120.613 175.041,119.731 173.311 C 118.849 171.582,116.373 167.294,114.230 163.783 C 110.150 157.098,109.944 156.526,110.958 154.654 C 114.844 147.473,118.729 140.169,120.198 137.285 C 121.191 135.333,122.234 133.648,122.515 133.540 C 123.005 133.352,124.333 133.949,124.333 134.357 C 124.333 134.465,125.496 136.374,126.917 138.600 C 128.337 140.826,130.212 143.787,131.082 145.180 C 133.450 148.970,133.372 149.030,137.998 139.833 C 149.096 117.766,148.607 118.667,149.486 118.667 C 149.952 118.667,150.532 118.989,150.837 119.417 " stroke="none" fill="#ecc41d" fill-rule="evenodd"></path><path id="path1" d="M0.000 166.667 L 0.000 333.333 200.000 333.333 L 400.000 333.333 400.000 166.667 L 400.000 0.000 200.000 0.000 L 0.000 0.000 0.000 166.667 M192.809 24.996 C 197.935 25.872,205.149 28.252,208.667 30.227 C 209.492 30.690,211.422 31.742,212.957 32.564 C 220.004 36.340,232.962 46.793,240.833 55.051 C 249.656 64.308,252.170 67.252,259.863 77.333 C 262.170 80.357,267.497 87.907,268.500 89.574 C 268.683 89.879,269.743 91.562,270.856 93.314 C 273.204 97.013,273.867 98.103,275.430 100.833 C 281.139 110.809,284.166 116.830,288.497 126.833 C 289.370 128.850,290.217 130.800,290.380 131.167 C 290.872 132.274,293.031 138.429,293.306 139.508 C 293.447 140.062,293.750 140.866,293.979 141.294 C 295.171 143.522,298.428 156.474,299.520 163.333 C 299.797 165.075,300.178 167.172,300.365 167.993 C 301.473 172.855,301.532 187.092,300.467 192.652 C 297.182 209.803,291.846 218.767,280.925 225.481 C 279.958 226.076,278.192 227.159,277.000 227.889 C 275.808 228.618,274.230 229.452,273.494 229.741 C 272.757 230.030,270.882 230.869,269.327 231.605 C 266.692 232.853,258.428 235.695,252.667 237.334 C 251.292 237.725,249.482 238.245,248.646 238.490 C 247.810 238.735,245.710 239.187,243.979 239.494 C 242.249 239.802,239.601 240.342,238.095 240.694 C 236.590 241.045,234.790 241.333,234.095 241.332 C 233.401 241.331,231.258 241.621,229.333 241.977 C 225.794 242.631,219.018 243.448,212.000 244.068 C 207.110 244.499,177.164 244.507,171.667 244.079 C 165.312 243.583,157.872 242.690,154.150 241.976 C 152.308 241.623,150.252 241.333,149.580 241.333 C 148.909 241.333,147.116 241.054,145.596 240.713 C 144.077 240.371,141.708 239.903,140.333 239.672 C 138.958 239.441,137.008 239.034,136.000 238.768 C 134.992 238.501,133.499 238.144,132.683 237.973 C 131.259 237.674,129.144 237.040,124.833 235.620 C 123.733 235.258,122.158 234.761,121.333 234.515 C 119.103 233.852,114.066 231.878,112.167 230.923 C 111.250 230.461,109.975 229.844,109.333 229.551 C 94.974 222.988,85.931 211.689,83.816 197.667 C 83.691 196.842,83.460 195.921,83.302 195.620 C 82.201 193.520,81.736 178.193,82.479 168.481 C 82.896 163.029,83.136 161.344,84.347 155.333 C 84.551 154.325,84.939 152.375,85.211 151.000 C 85.482 149.625,85.978 147.600,86.312 146.500 C 86.647 145.400,87.101 143.675,87.321 142.667 C 87.999 139.569,90.687 130.873,91.307 129.774 C 91.495 129.440,91.867 128.417,92.134 127.500 C 92.749 125.389,93.888 122.225,94.655 120.500 C 94.981 119.767,95.655 118.192,96.153 117.000 C 96.651 115.808,97.420 114.068,97.862 113.133 C 98.305 112.198,98.667 111.321,98.667 111.183 C 98.667 110.204,108.738 90.875,111.069 87.380 C 111.673 86.475,113.141 84.132,114.333 82.174 C 115.524 80.216,116.729 78.364,117.010 78.057 C 117.290 77.751,117.816 77.027,118.177 76.449 C 121.024 71.891,128.745 61.678,131.452 58.890 C 131.845 58.485,133.258 56.933,134.591 55.441 C 145.323 43.430,159.377 32.624,169.333 28.726 C 179.173 24.874,185.870 23.810,192.809 24.996 M183.933 56.750 C 183.417 57.562,179.539 65.458,178.326 68.167 C 177.915 69.083,176.624 71.780,175.456 74.159 C 174.289 76.538,173.331 78.713,173.328 78.992 C 173.325 79.272,172.877 80.250,172.333 81.167 C 171.790 82.083,171.342 83.162,171.339 83.564 C 171.336 83.965,171.183 84.387,171.000 84.500 C 170.817 84.613,170.667 84.933,170.667 85.210 C 170.667 85.641,170.747 85.634,171.218 85.163 C 171.522 84.859,172.124 84.476,172.556 84.312 C 172.988 84.148,173.514 83.635,173.724 83.173 C 173.935 82.711,174.290 82.333,174.515 82.333 C 174.739 82.333,174.995 82.056,175.083 81.717 C 175.188 81.319,175.767 80.970,176.728 80.728 C 177.543 80.523,178.487 80.050,178.824 79.677 C 179.199 79.263,179.854 79.000,180.513 79.000 C 181.279 79.000,181.635 78.823,181.750 78.384 C 181.854 77.987,182.431 77.637,183.372 77.400 C 184.339 77.157,185.280 76.575,186.151 75.683 C 187.123 74.687,187.736 74.333,188.489 74.333 C 189.216 74.333,189.603 74.124,189.838 73.603 C 190.227 72.739,191.860 71.725,192.917 71.691 C 193.619 71.668,194.052 70.667,193.359 70.667 C 193.190 70.667,192.106 68.754,190.950 66.417 C 189.794 64.079,188.282 61.232,187.591 60.089 C 186.899 58.947,186.333 57.888,186.333 57.736 C 186.333 56.486,184.563 55.759,183.933 56.750 M209.500 113.353 C 202.807 113.773,201.809 114.120,203.333 115.500 C 203.747 115.874,204.000 116.527,204.000 117.218 C 204.000 118.016,204.151 118.333,204.531 118.333 C 204.823 118.333,205.141 118.633,205.237 119.000 C 205.333 119.367,205.608 119.667,205.848 119.667 C 206.331 119.667,207.333 121.456,207.333 122.317 C 207.333 122.618,207.945 123.458,208.692 124.182 L 210.050 125.500 209.942 128.500 C 209.849 131.077,209.693 131.758,208.840 133.333 C 207.981 134.920,207.840 135.548,207.792 138.000 C 207.762 139.558,207.630 141.321,207.498 141.917 C 207.184 143.334,207.857 143.367,209.167 142.000 C 209.766 141.375,210.460 141.000,211.020 141.000 C 211.512 141.000,212.647 140.671,213.541 140.270 C 215.524 139.379,218.913 139.027,227.752 138.792 C 233.483 138.639,234.376 138.543,234.638 138.053 C 234.990 137.396,232.511 132.900,226.706 123.667 C 225.611 121.925,224.119 119.450,223.389 118.167 C 222.659 116.883,221.597 115.196,221.029 114.417 L 219.996 113.000 216.581 113.062 C 214.703 113.096,211.517 113.227,209.500 113.353 M181.083 113.910 C 180.534 114.102,180.545 114.889,181.098 114.889 C 181.755 114.889,182.406 114.098,181.902 113.912 C 181.681 113.831,181.313 113.830,181.083 113.910 M149.016 121.765 C 148.206 123.061,145.602 128.433,145.118 129.804 C 144.858 130.541,144.242 131.825,143.750 132.656 C 142.730 134.377,140.667 138.975,140.667 139.527 C 140.667 139.728,140.219 140.705,139.673 141.697 C 139.126 142.689,138.676 143.762,138.673 144.083 C 138.669 144.404,138.517 144.667,138.333 144.667 C 138.150 144.667,138.002 145.079,138.005 145.583 L 138.010 146.500 138.428 145.673 C 138.992 144.559,140.184 144.011,142.058 144.005 C 143.228 144.001,143.862 143.793,144.606 143.167 C 145.370 142.523,145.973 142.333,147.246 142.333 C 148.473 142.333,149.051 142.162,149.500 141.667 C 149.996 141.118,150.527 141.000,152.489 141.000 C 154.705 141.000,154.944 140.929,155.833 140.000 C 156.778 139.014,158.098 138.684,158.500 139.333 C 158.613 139.517,159.064 139.667,159.502 139.667 C 160.383 139.667,160.156 138.246,159.074 136.983 C 158.807 136.670,158.191 135.518,157.706 134.422 C 157.221 133.326,156.431 131.845,155.951 131.131 C 155.471 130.417,154.599 128.939,154.012 127.847 C 153.426 126.754,152.689 125.479,152.376 125.013 C 152.062 124.548,151.512 123.591,151.153 122.888 C 150.288 121.194,149.599 120.832,149.016 121.765 M133.747 151.083 C 133.173 151.799,129.333 159.295,129.333 159.700 C 129.333 159.911,128.133 162.549,126.667 165.561 C 125.200 168.573,124.000 171.443,124.000 171.939 C 124.000 172.479,123.733 173.006,123.333 173.256 C 122.103 174.024,122.901 175.973,127.053 182.333 C 128.071 183.892,130.537 187.910,132.535 191.262 C 137.341 199.328,137.027 199.000,139.915 199.000 C 141.200 199.000,142.758 199.207,143.376 199.460 C 143.999 199.716,146.507 200.028,149.000 200.160 C 152.192 200.330,153.766 200.556,154.417 200.938 L 155.333 201.477 155.333 206.410 C 155.333 209.645,155.197 211.561,154.937 211.977 C 154.012 213.458,157.690 214.209,166.667 214.374 C 172.270 214.477,172.122 214.684,169.459 210.468 C 168.427 208.835,167.291 206.987,166.932 206.359 C 166.574 205.732,165.714 204.382,165.021 203.359 C 164.246 202.214,163.675 200.909,163.534 199.960 C 163.408 199.113,162.840 197.688,162.270 196.793 C 161.701 195.899,161.026 194.668,160.770 194.059 C 160.514 193.450,159.783 192.211,159.147 191.305 C 157.593 189.094,152.631 179.124,152.370 177.688 C 152.191 176.702,151.894 176.406,150.228 175.558 C 148.207 174.529,147.321 173.440,145.159 169.333 C 144.628 168.325,143.254 166.066,142.104 164.313 C 140.955 162.560,139.788 160.483,139.511 159.699 C 139.235 158.915,138.567 157.716,138.027 157.035 C 137.488 156.353,136.746 155.007,136.380 154.042 C 135.239 151.039,134.473 150.178,133.747 151.083 M192.908 170.870 C 192.407 171.371,192.709 172.295,194.050 174.365 C 194.810 175.539,195.691 176.950,196.008 177.500 C 197.163 179.509,200.827 185.265,203.381 189.084 C 204.821 191.238,206.000 193.125,206.000 193.276 C 206.000 193.653,207.470 195.004,207.855 194.981 C 208.026 194.971,208.841 193.583,209.664 191.898 C 210.488 190.212,211.538 188.311,211.998 187.672 C 212.996 186.285,214.853 183.128,216.003 180.864 C 217.162 178.581,220.530 175.000,221.519 175.000 C 221.945 175.000,222.380 174.860,222.486 174.689 C 222.592 174.518,223.538 174.196,224.589 173.972 C 226.651 173.534,225.923 172.923,223.500 173.057 C 222.151 173.131,220.992 172.735,220.055 171.878 C 219.364 171.245,218.865 171.163,215.555 171.135 C 213.508 171.117,207.629 170.996,202.491 170.866 C 197.353 170.735,193.041 170.737,192.908 170.870 M164.147 268.369 C 164.870 268.569,165.868 269.168,166.364 269.700 L 167.267 270.666 168.434 269.500 L 169.600 268.333 178.852 268.333 C 188.101 268.333,188.104 268.334,189.151 269.132 L 190.199 269.931 191.516 269.134 C 193.030 268.218,202.412 267.931,205.047 268.720 C 211.909 270.776,212.140 280.686,205.397 283.733 C 203.125 284.760,203.081 284.609,207.861 292.158 C 209.562 294.844,209.673 295.684,208.455 296.642 C 206.392 298.265,203.719 297.060,201.991 293.730 C 201.354 292.504,200.443 290.900,199.966 290.167 C 199.489 289.433,199.038 288.683,198.963 288.500 C 198.888 288.317,198.379 287.454,197.833 286.583 C 196.230 284.032,196.000 284.388,195.998 289.417 C 195.997 291.846,195.840 294.396,195.649 295.083 C 195.039 297.279,192.217 298.062,190.435 296.528 C 189.373 295.615,189.432 297.553,189.975 281.333 C 190.254 273.013,190.157 272.285,188.890 273.173 C 188.418 273.504,187.351 273.667,185.656 273.667 C 184.149 273.667,182.905 273.835,182.578 274.083 C 181.900 274.597,181.338 281.258,181.333 288.833 C 181.331 291.583,181.173 294.396,180.983 295.083 C 180.394 297.202,177.654 298.039,175.878 296.642 L 175.000 295.952 175.003 290.726 C 175.005 287.852,175.157 283.025,175.341 280.000 C 175.740 273.444,175.861 273.667,171.911 273.667 C 169.467 273.667,169.215 273.600,168.335 272.720 L 167.388 271.773 166.527 272.755 L 165.665 273.737 162.689 273.502 C 154.982 272.892,154.888 275.535,162.402 281.644 C 167.456 285.752,168.779 288.956,167.042 292.878 C 164.279 299.120,150.000 299.750,150.000 293.629 C 150.000 291.577,150.984 291.125,153.969 291.804 C 161.486 293.513,163.886 290.486,158.602 285.957 C 152.309 280.563,150.611 278.345,150.611 275.517 C 150.611 270.105,157.431 266.504,164.147 268.369 M320.680 268.336 C 328.370 269.794,333.269 277.458,331.511 285.282 C 330.700 288.896,330.367 289.891,329.816 290.347 C 329.551 290.568,329.333 290.931,329.333 291.154 C 329.333 291.827,326.613 294.460,324.833 295.511 C 316.943 300.169,306.806 297.731,302.610 290.167 L 301.500 288.167 301.515 283.333 C 301.549 272.407,309.469 266.210,320.680 268.336 M130.949 268.871 C 144.769 272.812,142.406 294.056,127.833 296.880 C 123.772 297.667,114.502 297.502,113.626 296.626 C 112.861 295.861,112.951 271.698,113.725 270.232 C 114.762 268.269,125.785 267.398,130.949 268.871 M147.241 268.991 C 148.734 269.901,148.835 270.654,148.384 277.498 C 148.166 280.799,147.978 285.375,147.966 287.667 C 147.935 293.465,147.643 295.460,146.675 296.491 C 145.509 297.732,143.610 297.661,142.275 296.327 L 141.268 295.320 141.468 291.577 C 141.578 289.518,141.835 283.858,142.039 279.000 C 142.432 269.634,142.494 269.333,144.167 268.648 C 145.256 268.203,146.103 268.297,147.241 268.991 M217.031 268.849 C 218.810 269.769,218.926 273.619,217.721 291.744 C 217.360 297.172,215.319 299.018,212.435 296.525 L 211.500 295.717 211.591 291.608 C 211.998 273.259,212.160 270.411,212.840 269.655 C 214.059 268.300,215.451 268.032,217.031 268.849 M237.352 268.840 C 242.367 270.609,244.024 275.772,240.990 280.181 C 239.753 281.979,239.754 282.006,241.157 283.844 C 243.128 286.425,243.428 289.499,241.985 292.333 C 240.043 296.149,236.722 297.333,227.965 297.333 C 221.385 297.333,220.814 297.019,221.135 293.572 C 221.241 292.433,221.412 286.925,221.514 281.333 C 221.712 270.578,221.848 269.620,223.296 268.833 C 224.582 268.134,235.366 268.139,237.352 268.840 M249.781 268.703 C 251.371 269.428,251.442 269.967,251.079 278.566 C 250.550 291.129,251.320 292.728,257.681 292.268 C 263.238 291.866,264.262 289.034,264.321 273.895 C 264.340 268.975,266.448 266.985,269.641 268.871 C 270.480 269.367,270.635 269.367,271.593 268.871 C 273.355 267.960,290.082 268.081,291.615 269.016 L 292.730 269.695 294.137 269.014 C 298.006 267.142,299.600 268.977,299.019 274.635 C 298.825 276.524,298.666 281.617,298.665 285.952 C 298.662 296.172,298.317 297.333,295.278 297.333 C 291.977 297.333,291.997 297.459,292.651 281.340 C 292.954 273.892,292.818 272.704,291.724 273.203 C 291.418 273.343,289.848 273.542,288.237 273.645 C 286.371 273.765,285.211 273.990,285.041 274.266 C 284.786 274.680,284.240 282.239,283.799 291.466 C 283.606 295.512,283.544 295.812,282.748 296.550 C 281.608 297.606,279.692 297.610,278.468 296.557 L 277.566 295.782 277.635 289.648 C 277.673 286.274,277.841 282.461,278.008 281.174 C 278.176 279.886,278.317 277.756,278.323 276.439 C 278.335 273.619,278.542 273.754,274.000 273.604 L 270.833 273.500 270.444 277.833 C 270.230 280.217,270.042 283.420,270.027 284.952 C 269.976 290.153,268.788 293.097,265.893 295.200 C 259.986 299.488,250.174 298.524,246.209 293.266 C 244.602 291.135,244.263 289.023,244.653 283.583 C 244.840 280.971,244.995 277.078,244.997 274.932 C 245.002 269.245,246.549 267.231,249.781 268.703 M340.542 268.971 C 341.439 269.518,343.521 272.364,346.172 276.667 C 347.021 278.046,347.113 278.184,350.304 282.871 C 354.004 288.305,353.663 288.694,354.050 278.607 C 354.388 269.807,354.473 269.437,356.339 268.664 C 357.634 268.128,358.842 268.486,359.715 269.667 C 360.394 270.586,360.046 292.291,359.306 295.081 C 358.730 297.255,355.427 298.099,353.084 296.671 C 351.916 295.959,351.560 295.484,347.831 289.667 C 346.480 287.558,344.941 285.233,344.411 284.500 C 343.880 283.767,342.873 282.342,342.171 281.333 C 339.867 278.023,339.834 278.112,339.470 288.497 L 339.225 295.493 338.305 296.413 C 335.978 298.740,332.928 296.733,333.465 293.230 C 333.583 292.462,333.818 286.980,333.987 281.048 C 334.262 271.373,334.356 270.194,334.897 269.592 C 336.141 268.209,338.810 267.915,340.542 268.971 M50.167 268.992 C 52.387 269.506,52.701 270.195,52.451 274.004 C 52.111 279.193,52.566 279.266,55.483 274.492 C 57.393 271.367,58.649 269.702,59.439 269.250 C 60.708 268.523,69.302 268.685,70.482 269.458 C 71.415 270.069,71.459 270.069,72.468 269.458 C 75.970 267.338,81.994 269.008,82.005 272.102 C 82.011 273.770,82.790 277.256,83.261 277.728 C 83.560 278.026,85.072 273.778,85.800 270.593 C 86.144 269.091,87.051 268.836,92.048 268.835 C 97.581 268.833,97.705 268.904,98.309 272.421 C 99.521 279.467,100.549 279.589,101.872 272.844 C 102.581 269.228,103.139 268.833,107.536 268.833 C 111.269 268.833,113.049 269.708,112.552 271.299 C 112.460 271.593,112.084 272.733,111.717 273.833 C 111.349 274.933,110.650 277.183,110.162 278.833 C 109.675 280.483,109.045 282.508,108.761 283.333 C 108.478 284.158,107.978 285.958,107.650 287.333 C 105.323 297.094,105.249 297.168,98.122 296.953 C 92.900 296.796,92.540 296.579,92.009 293.264 C 91.422 289.601,91.040 288.551,90.469 289.026 C 90.211 289.240,90.001 289.584,90.003 289.791 C 90.012 290.744,88.431 295.118,87.785 295.928 L 87.063 296.833 82.208 296.833 C 76.487 296.833,76.144 296.665,75.681 293.636 C 75.529 292.644,75.169 290.633,74.881 289.167 C 74.593 287.700,73.898 283.800,73.337 280.500 C 71.639 270.508,71.677 270.574,69.333 273.713 C 63.078 282.091,63.109 282.025,64.500 284.072 C 64.958 284.746,65.333 285.430,65.333 285.591 C 65.333 285.753,66.303 287.395,67.488 289.240 C 72.262 296.673,72.003 297.163,63.408 296.944 C 57.686 296.799,57.476 296.641,54.719 290.433 C 52.314 285.015,51.630 285.163,51.346 291.161 C 51.083 296.723,51.070 296.737,45.929 296.932 C 38.697 297.205,38.249 296.762,39.149 290.231 C 39.483 287.812,39.924 282.277,40.130 277.931 C 40.368 272.891,40.643 269.890,40.888 269.646 C 41.778 268.756,47.429 268.357,50.167 268.992 M228.801 273.658 C 228.070 273.954,227.398 277.911,227.869 279.140 C 228.363 280.428,234.103 279.729,235.426 278.220 C 238.026 275.253,233.154 271.899,228.801 273.658 M313.500 273.742 C 305.535 275.774,305.365 290.260,313.287 291.959 C 321.017 293.617,325.729 289.568,325.243 281.685 C 324.832 275.035,320.342 271.997,313.500 273.742 M119.972 274.200 C 119.648 274.591,119.470 276.808,119.306 282.499 C 119.183 286.770,118.987 290.418,118.871 290.605 C 117.865 292.233,125.254 292.557,128.423 291.023 C 135.574 287.563,135.714 275.347,128.619 273.976 C 125.931 273.457,120.472 273.598,119.972 274.200 M196.368 274.268 C 195.855 275.226,195.881 280.572,196.400 280.744 C 197.890 281.241,203.015 279.552,203.657 278.352 C 204.141 277.447,204.083 275.241,203.556 274.520 C 202.827 273.523,196.879 273.314,196.368 274.268 M228.464 285.217 L 227.429 285.368 227.215 288.157 C 226.904 292.195,226.795 292.079,230.797 291.946 C 235.302 291.795,236.333 291.161,236.333 288.535 C 236.333 285.665,233.521 284.479,228.464 285.217 " stroke="none" fill="#fbfbfa" fill-rule="evenodd"></path><path id="path2" d="M158.250 270.039 C 155.695 270.314,153.828 271.552,152.940 273.558 C 151.557 276.685,153.164 279.312,159.606 284.452 C 166.713 290.122,162.843 295.667,153.083 293.798 C 151.382 293.473,151.532 294.839,153.250 295.316 C 164.036 298.311,170.071 290.450,162.102 283.785 C 154.874 277.740,153.761 275.243,157.095 272.550 C 158.305 271.573,158.482 271.532,161.345 271.572 C 164.074 271.610,164.333 271.559,164.333 270.980 C 164.333 270.048,161.807 269.657,158.250 270.039 M116.386 270.379 C 115.456 270.723,115.400 271.114,115.208 278.667 C 115.117 282.242,114.853 287.322,114.622 289.956 C 114.092 295.992,113.789 295.667,119.953 295.667 C 130.706 295.667,135.272 293.196,137.387 286.234 C 139.298 279.940,137.227 273.688,132.500 271.486 C 129.695 270.178,118.927 269.439,116.386 270.379 M170.731 270.271 C 168.544 270.595,170.172 271.500,173.243 271.667 C 177.972 271.923,177.945 271.804,177.004 288.813 C 176.696 294.390,176.840 295.333,178.000 295.333 C 179.109 295.333,179.243 294.403,179.484 285.000 C 179.827 271.626,179.811 271.667,184.721 271.667 C 187.615 271.667,188.477 271.343,187.688 270.554 C 187.327 270.193,172.878 269.952,170.731 270.271 M194.777 270.222 C 192.204 270.437,192.247 270.293,191.972 279.605 C 191.838 284.131,191.619 289.293,191.485 291.078 C 191.227 294.538,191.457 295.333,192.715 295.333 C 193.806 295.333,193.974 294.104,194.303 283.691 C 194.699 271.185,194.426 271.873,199.035 271.749 C 206.017 271.562,208.645 277.825,203.068 281.362 C 201.663 282.253,201.628 282.311,202.390 282.502 C 204.610 283.059,207.786 280.227,208.372 277.167 C 209.397 271.811,204.666 269.395,194.777 270.222 M225.083 270.214 C 223.793 270.499,223.654 271.391,223.328 281.415 C 223.153 286.778,222.916 291.804,222.801 292.584 C 222.351 295.619,226.455 296.633,233.855 295.314 C 240.892 294.061,243.550 288.049,238.792 284.150 C 236.979 282.665,236.965 282.057,238.696 280.004 C 241.589 276.573,241.055 272.721,237.444 270.973 C 235.909 270.230,227.382 269.706,225.083 270.214 M273.604 270.348 C 271.595 270.822,272.829 271.500,275.876 271.595 C 280.584 271.743,280.683 272.210,279.682 289.500 C 279.398 294.410,279.557 295.333,280.686 295.333 C 281.787 295.333,281.942 294.235,282.286 283.987 C 282.707 271.467,282.620 271.667,287.647 271.667 C 290.340 271.667,291.412 271.089,290.060 270.365 C 289.456 270.042,274.965 270.027,273.604 270.348 M311.412 270.758 C 302.562 273.904,299.783 285.764,306.369 292.282 C 311.228 297.091,321.826 296.963,326.430 292.040 C 331.123 287.021,331.294 278.092,326.783 273.538 C 323.502 270.225,316.483 268.955,311.412 270.758 M337.249 270.416 C 336.046 270.818,336.097 270.442,335.504 283.210 C 334.973 294.617,335.002 295.333,335.995 295.333 C 337.128 295.333,337.270 294.484,337.662 285.343 C 338.160 273.766,338.629 272.791,341.578 277.216 C 345.435 283.002,351.293 291.801,352.231 293.217 C 353.910 295.750,356.595 296.469,357.299 294.574 C 357.566 293.856,358.144 279.909,358.159 273.839 C 358.166 271.184,358.097 270.831,357.548 270.724 C 356.390 270.499,356.277 271.208,356.011 280.379 C 355.865 285.396,355.642 289.751,355.514 290.058 C 354.909 291.509,353.265 290.908,351.983 288.767 C 350.220 285.822,340.402 271.136,339.971 270.798 C 339.232 270.220,338.247 270.082,337.249 270.416 M144.624 270.884 C 144.311 271.261,144.144 272.553,144.096 274.968 C 144.058 276.910,143.849 282.162,143.633 286.637 C 143.259 294.390,143.270 294.796,143.851 295.221 C 144.602 295.770,144.733 295.772,145.422 295.250 C 146.274 294.603,146.904 271.373,146.086 270.750 C 145.371 270.205,145.173 270.224,144.624 270.884 M214.671 270.657 C 214.269 270.911,214.131 272.322,213.949 278.069 C 213.825 281.973,213.613 287.298,213.477 289.904 C 213.218 294.889,213.378 295.667,214.667 295.667 C 216.010 295.667,216.089 295.074,216.363 282.917 C 216.654 270.044,216.573 269.455,214.671 270.657 M247.679 270.652 C 246.898 271.146,246.172 287.870,246.832 290.167 C 248.001 294.239,250.650 295.667,257.034 295.667 C 264.927 295.667,267.489 293.430,268.021 286.076 C 269.150 270.446,269.147 270.333,267.667 270.333 C 266.386 270.333,266.214 271.175,265.631 280.320 C 265.006 290.133,264.940 290.406,262.707 292.424 C 259.169 295.621,251.895 294.720,249.864 290.833 C 249.085 289.344,248.908 283.189,249.417 275.274 C 249.704 270.803,249.269 269.646,247.679 270.652 M295.245 270.803 C 294.815 271.232,294.476 278.422,294.201 292.957 C 294.158 295.202,295.132 296.202,296.262 295.072 C 296.930 294.403,297.749 272.836,297.175 271.027 C 296.922 270.230,295.933 270.115,295.245 270.803 M233.736 271.602 C 239.224 271.889,239.059 279.587,233.524 281.448 C 228.168 283.248,226.000 282.012,226.000 277.158 C 226.000 271.493,226.384 271.217,233.736 271.602 M322.017 272.675 C 326.394 274.885,328.502 280.808,326.888 286.360 C 324.065 296.073,311.182 297.352,306.651 288.370 C 301.672 278.501,312.219 267.729,322.017 272.675 M130.515 272.783 C 134.278 274.586,135.593 277.374,135.250 282.820 C 134.785 290.194,130.965 293.726,123.220 293.945 C 116.505 294.136,116.844 294.664,117.314 284.731 C 117.971 270.860,117.571 271.667,123.784 271.667 C 128.091 271.667,128.236 271.691,130.515 272.783 M198.446 283.188 C 198.205 283.816,198.222 283.850,202.275 290.667 C 204.933 295.136,206.078 296.221,206.839 294.991 C 207.085 294.593,205.081 290.849,202.837 287.515 C 201.529 285.572,201.296 284.991,201.397 283.931 L 201.518 282.667 200.082 282.667 C 199.087 282.667,198.584 282.827,198.446 283.188 M235.185 283.827 C 238.677 285.372,239.259 289.817,236.318 292.474 C 233.514 295.008,226.406 295.151,225.763 292.686 C 225.272 290.804,225.757 284.488,226.452 283.720 C 227.604 282.446,232.190 282.503,235.185 283.827 " stroke="none" fill="#3d3f3d" fill-rule="evenodd"></path><path id="path3" d="M182.000 26.354 C 178.404 27.029,176.660 27.438,176.797 27.575 C 176.878 27.656,178.194 27.453,179.722 27.124 C 183.614 26.287,191.839 26.291,195.435 27.133 C 196.866 27.468,198.107 27.671,198.193 27.585 C 199.170 26.608,185.988 25.606,182.000 26.354 M200.167 28.362 C 201.083 28.765,203.708 29.917,206.000 30.922 C 208.292 31.927,211.292 33.440,212.667 34.284 C 215.523 36.038,220.179 39.084,221.167 39.846 C 221.533 40.128,222.998 41.246,224.421 42.328 C 229.459 46.161,241.903 58.066,246.902 63.833 C 250.097 67.521,251.991 69.816,253.916 72.333 C 254.967 73.708,256.728 75.990,257.830 77.404 C 262.075 82.851,267.990 91.476,270.355 95.667 C 271.131 97.042,272.328 98.999,273.016 100.015 C 275.041 103.010,279.923 112.192,283.525 119.781 C 284.730 122.319,285.780 124.331,285.860 124.251 C 286.266 123.846,276.067 103.949,273.173 99.500 C 272.577 98.583,271.374 96.633,270.500 95.167 C 267.291 89.782,260.962 80.751,255.280 73.451 C 237.746 50.923,212.924 30.648,199.417 27.821 C 198.912 27.715,199.250 27.959,200.167 28.362 M173.667 28.500 C 173.208 28.762,172.983 28.976,173.167 28.976 C 173.350 28.976,173.875 28.762,174.333 28.500 C 174.792 28.238,175.017 28.024,174.833 28.024 C 174.650 28.024,174.125 28.238,173.667 28.500 M170.667 29.638 C 167.369 30.973,163.128 33.085,161.688 34.109 C 160.851 34.704,159.417 35.624,158.500 36.154 C 157.049 36.992,153.727 39.418,149.355 42.833 C 142.461 48.218,129.092 62.917,122.675 72.167 C 121.530 73.817,120.331 75.467,120.010 75.833 C 119.333 76.606,115.818 82.082,112.308 87.833 C 110.152 91.367,102.333 105.779,102.333 106.221 C 102.333 106.314,101.153 108.965,99.709 112.112 C 97.128 117.740,92.310 130.086,91.038 134.333 C 83.606 159.144,81.351 181.452,84.803 196.021 C 85.083 197.201,85.488 199.067,85.704 200.167 C 85.919 201.267,86.152 202.008,86.221 201.814 C 86.290 201.619,85.898 199.115,85.349 196.247 C 83.680 187.531,83.365 178.176,84.378 167.500 C 84.821 162.827,86.535 151.739,87.156 149.526 C 91.539 133.909,92.505 130.757,94.162 126.667 C 94.644 125.475,95.774 122.550,96.672 120.167 C 97.570 117.783,98.962 114.483,99.766 112.833 C 100.570 111.183,101.623 108.841,102.106 107.629 C 102.590 106.416,103.526 104.466,104.188 103.295 C 104.850 102.125,106.309 99.367,107.430 97.167 C 108.551 94.967,109.795 92.717,110.196 92.167 C 110.596 91.617,111.683 89.809,112.612 88.150 C 114.048 85.584,116.344 81.918,119.167 77.683 C 120.881 75.110,125.663 68.583,127.481 66.333 C 128.592 64.958,130.136 63.008,130.912 62.000 C 134.076 57.890,145.454 46.353,149.000 43.661 C 149.825 43.034,151.325 41.822,152.333 40.966 C 154.225 39.362,164.864 32.333,165.401 32.333 C 165.693 32.333,166.564 31.953,170.833 29.963 C 173.077 28.917,172.969 28.707,170.667 29.638 M183.703 54.347 C 182.734 55.408,180.997 58.736,171.880 77.000 C 169.364 82.042,166.863 86.992,166.322 88.000 C 162.740 94.684,154.667 111.413,154.667 112.150 C 154.667 112.981,156.188 115.768,159.500 121.000 C 160.255 122.192,161.285 123.842,161.790 124.667 C 162.296 125.492,163.550 127.517,164.578 129.167 C 165.606 130.817,167.202 133.425,168.126 134.963 C 170.425 138.791,169.009 138.530,188.000 138.626 C 196.892 138.671,204.429 138.784,204.750 138.876 C 205.823 139.186,205.376 140.813,202.874 145.698 C 201.521 148.339,200.301 150.875,200.163 151.333 C 200.025 151.792,199.649 152.542,199.328 153.000 C 197.704 155.312,190.277 170.730,190.451 171.425 C 190.554 171.833,191.324 173.189,192.162 174.440 C 193.001 175.690,194.159 177.565,194.737 178.606 C 195.314 179.648,196.714 181.925,197.847 183.667 C 198.981 185.408,200.175 187.358,200.501 188.000 C 201.607 190.174,204.921 195.160,206.096 196.417 L 207.265 197.667 210.382 197.674 C 222.354 197.703,270.644 196.887,271.250 196.646 C 272.572 196.120,272.634 196.259,266.903 186.833 C 266.346 185.917,265.336 184.192,264.658 183.000 C 262.111 178.519,257.943 171.809,257.308 171.167 C 256.670 170.522,256.091 170.495,239.444 170.333 C 223.618 170.180,222.210 170.121,221.876 169.591 C 221.583 169.126,222.041 167.977,224.272 163.591 C 230.471 151.398,233.939 144.678,235.467 141.893 C 237.418 138.336,237.396 137.863,235.115 134.205 C 234.227 132.781,232.750 130.352,231.833 128.807 C 229.974 125.673,226.818 120.536,223.905 115.902 C 222.844 114.214,221.602 112.458,221.145 112.000 L 220.315 111.167 203.279 111.167 C 188.415 111.167,186.201 111.102,185.922 110.661 C 185.559 110.089,186.615 107.811,192.489 96.500 C 199.560 82.882,200.667 80.586,200.667 79.534 C 200.667 78.453,199.631 76.584,193.000 65.699 C 191.075 62.539,188.750 58.666,187.833 57.093 C 185.629 53.311,185.020 52.906,183.703 54.347 M186.110 55.083 C 186.556 55.679,187.517 57.217,188.247 58.500 C 188.977 59.783,190.481 62.333,191.589 64.167 C 201.606 80.743,200.962 79.007,198.712 83.362 C 193.309 93.822,188.758 102.460,187.631 104.392 C 186.917 105.615,186.330 106.815,186.326 107.058 C 186.322 107.301,186.025 107.875,185.667 108.333 C 184.964 109.232,184.817 110.530,185.328 111.333 C 185.604 111.767,187.964 111.833,203.239 111.833 L 220.833 111.833 222.408 114.167 C 223.274 115.450,224.484 117.400,225.097 118.500 C 225.711 119.600,227.015 121.775,227.996 123.333 C 228.976 124.892,230.450 127.292,231.270 128.667 C 232.090 130.042,233.328 132.067,234.020 133.167 C 237.039 137.963,237.051 138.051,235.180 141.295 C 234.117 143.137,230.967 149.186,224.745 161.333 C 223.008 164.725,221.476 167.650,221.341 167.833 C 219.714 170.048,220.855 170.664,226.607 170.680 C 244.462 170.728,256.106 171.007,256.578 171.398 C 257.215 171.927,259.913 175.940,261.240 178.333 C 261.799 179.342,263.022 181.442,263.957 183.000 C 264.893 184.558,266.247 186.991,266.966 188.406 C 267.685 189.821,268.567 191.396,268.926 191.906 C 270.467 194.093,271.031 195.584,270.407 195.824 C 270.092 195.946,263.833 196.183,256.500 196.351 C 249.167 196.519,240.317 196.728,236.833 196.814 C 233.350 196.900,225.264 197.002,218.864 197.039 L 207.228 197.108 206.197 195.913 C 205.104 194.645,203.887 192.818,201.395 188.702 C 200.551 187.308,198.942 184.742,197.821 183.000 C 196.700 181.258,195.221 178.858,194.534 177.667 C 193.847 176.475,192.771 174.682,192.143 173.681 C 190.520 171.099,190.275 171.804,198.521 155.329 C 203.871 144.638,206.011 140.043,205.937 139.401 C 205.803 138.240,204.495 138.144,185.037 137.864 C 169.023 137.634,170.416 137.903,168.594 134.689 C 168.015 133.668,166.843 131.783,165.990 130.500 C 162.282 124.926,155.550 113.687,155.197 112.482 C 155.058 112.008,156.189 109.392,158.872 103.982 C 161.004 99.684,163.396 94.817,164.188 93.167 C 164.980 91.517,166.006 89.492,166.468 88.667 C 166.930 87.842,170.711 80.300,174.870 71.908 C 184.541 52.392,184.331 52.706,186.110 55.083 M145.262 125.417 C 143.387 129.129,140.118 135.617,137.998 139.833 C 133.372 149.030,133.450 148.970,131.082 145.180 C 130.212 143.787,128.337 140.826,126.917 138.600 C 125.496 136.374,124.333 134.465,124.333 134.357 C 124.333 133.949,123.005 133.352,122.515 133.540 C 122.234 133.648,121.191 135.333,120.198 137.285 C 118.729 140.169,114.844 147.473,110.958 154.654 C 109.944 156.526,110.150 157.098,114.230 163.783 C 116.373 167.294,118.849 171.582,119.731 173.311 C 120.613 175.041,121.913 177.366,122.620 178.478 C 123.327 179.590,124.626 181.700,125.508 183.167 C 130.683 191.780,133.631 196.531,136.528 200.928 C 137.460 202.343,139.635 205.888,141.361 208.807 C 143.088 211.726,144.968 214.613,145.539 215.224 L 146.579 216.333 159.723 216.333 C 173.416 216.333,173.667 216.308,173.667 214.922 C 173.667 214.256,171.299 209.923,169.338 207.000 C 164.312 199.509,164.184 199.683,174.774 199.616 C 191.989 199.507,197.617 199.403,197.969 199.186 C 198.905 198.607,197.446 195.599,192.143 187.167 C 191.451 186.067,190.113 183.817,189.170 182.167 C 186.385 177.297,184.643 174.677,183.936 174.299 C 183.493 174.062,178.149 173.953,167.816 173.969 C 148.981 173.999,149.397 174.101,151.715 170.000 C 152.727 168.209,154.528 164.735,161.825 150.500 L 165.414 143.500 164.595 142.000 C 163.067 139.202,159.106 132.507,158.186 131.167 C 157.683 130.433,156.904 129.115,156.457 128.237 C 155.755 126.861,152.489 121.735,150.837 119.417 C 149.498 117.537,148.933 118.145,145.262 125.417 M150.837 120.083 C 151.709 121.305,154.459 125.647,156.061 128.333 C 156.882 129.708,158.006 131.583,158.559 132.500 C 159.113 133.417,160.086 135.067,160.723 136.167 C 161.359 137.267,162.524 139.253,163.310 140.581 C 165.072 143.556,165.176 143.078,161.105 150.777 C 159.343 154.108,156.628 159.362,155.072 162.453 C 153.515 165.543,151.731 168.918,151.107 169.953 C 148.466 174.335,148.419 174.322,167.546 174.328 C 185.903 174.334,183.499 173.674,186.985 179.667 C 188.319 181.958,190.091 184.958,190.923 186.333 C 191.756 187.708,193.329 190.483,194.419 192.500 C 195.510 194.517,196.680 196.469,197.019 196.838 C 198.180 198.102,197.523 198.234,188.833 198.484 C 167.858 199.086,166.446 199.156,165.883 199.624 C 164.839 200.493,164.934 200.706,170.001 208.833 C 174.789 216.512,175.734 215.833,160.262 215.833 C 144.790 215.833,146.002 216.234,142.618 210.000 C 141.013 207.043,137.809 201.789,136.622 200.167 C 135.084 198.066,132.376 193.811,130.149 190.000 C 129.024 188.075,126.705 184.250,124.995 181.500 C 123.286 178.750,120.810 174.250,119.493 171.500 C 118.177 168.750,116.581 165.824,115.947 164.997 C 115.313 164.171,114.222 162.371,113.522 160.997 C 112.822 159.624,111.977 158.153,111.643 157.729 C 111.310 157.305,111.117 156.705,111.216 156.395 C 111.522 155.429,112.120 154.200,112.716 153.312 C 113.032 152.842,113.874 151.342,114.588 149.979 C 115.302 148.615,116.210 146.900,116.604 146.167 C 116.999 145.433,117.628 144.158,118.002 143.333 C 121.085 136.529,122.964 133.914,123.870 135.167 C 124.570 136.135,128.143 141.700,130.235 145.082 C 133.499 150.358,132.911 150.944,141.345 134.000 C 149.209 118.200,149.348 117.997,150.837 120.083 M286.507 126.333 C 286.648 126.792,287.204 128.217,287.743 129.500 C 291.050 137.380,292.300 141.075,295.807 153.333 C 296.620 156.175,297.296 158.266,297.309 157.980 C 297.370 156.679,292.763 141.375,290.543 135.500 C 288.163 129.204,285.595 123.371,286.507 126.333 M297.384 159.000 C 297.368 159.275,297.648 161.750,298.007 164.500 C 298.366 167.250,298.828 171.075,299.035 173.000 C 299.507 177.407,299.230 188.726,298.545 193.000 C 297.662 198.516,297.661 199.286,298.544 195.333 C 299.839 189.536,300.068 175.974,298.999 168.401 C 298.182 162.612,297.429 158.228,297.384 159.000 M296.344 203.099 C 292.185 213.871,286.746 220.628,278.826 224.861 C 277.547 225.545,276.125 226.361,275.667 226.675 C 273.817 227.943,269.811 229.727,264.072 231.840 C 261.143 232.918,259.561 233.634,260.057 233.657 C 261.092 233.703,273.623 228.538,275.291 227.377 C 275.773 227.042,277.217 226.196,278.500 225.498 C 286.918 220.915,292.939 213.633,296.505 203.721 C 297.582 200.729,297.452 200.230,296.344 203.099 M86.343 202.544 C 86.330 203.046,87.708 206.643,88.943 209.333 C 91.293 214.449,95.159 218.987,100.500 222.896 C 102.796 224.577,111.182 229.332,111.833 229.323 C 112.166 229.318,110.046 228.092,105.333 225.563 C 99.377 222.367,92.697 215.958,90.152 211.000 C 89.822 210.358,88.833 208.108,87.953 206.000 C 87.072 203.892,86.348 202.336,86.343 202.544 M113.833 230.149 C 117.432 231.966,127.456 235.319,133.833 236.838 C 139.009 238.070,145.145 239.331,145.803 239.297 C 146.186 239.277,145.900 239.134,145.167 238.980 C 144.433 238.826,141.883 238.241,139.500 237.681 C 137.117 237.120,133.576 236.298,131.631 235.853 C 128.197 235.067,122.634 233.247,116.500 230.905 C 112.262 229.286,111.951 229.198,113.833 230.149 M256.000 234.642 C 251.153 236.069,240.193 238.637,235.167 239.522 C 233.333 239.846,232.021 240.173,232.251 240.250 C 233.561 240.688,259.667 234.559,259.667 233.813 C 259.667 233.583,259.367 233.651,256.000 234.642 M148.333 239.848 C 150.719 240.443,151.665 240.412,149.500 239.810 C 148.583 239.555,147.533 239.356,147.167 239.368 C 146.800 239.380,147.325 239.596,148.333 239.848 M151.750 240.563 C 152.071 240.647,152.596 240.647,152.917 240.563 C 153.237 240.479,152.975 240.411,152.333 240.411 C 151.692 240.411,151.429 240.479,151.750 240.563 M229.921 240.569 C 230.335 240.649,230.935 240.646,231.254 240.562 C 231.573 240.479,231.233 240.414,230.500 240.417 C 229.767 240.421,229.506 240.489,229.921 240.569 M156.167 241.013 C 161.612 241.831,171.621 242.671,175.333 242.623 L 179.500 242.568 174.500 242.300 C 171.750 242.153,167.250 241.805,164.500 241.527 C 157.905 240.859,153.214 240.570,156.167 241.013 M224.000 241.013 C 216.906 241.733,209.349 242.337,207.067 242.367 C 204.894 242.396,204.679 242.446,205.667 242.693 C 207.221 243.081,228.410 241.368,228.969 240.809 C 229.160 240.618,227.048 240.704,224.000 241.013 M185.667 243.053 C 189.058 243.194,194.608 243.194,198.000 243.054 C 203.426 242.829,202.685 242.799,191.833 242.798 C 180.982 242.798,180.241 242.829,185.667 243.053 M156.833 268.978 C 154.184 269.623,152.038 271.649,151.331 274.173 C 150.543 276.988,152.058 279.578,156.957 283.796 C 160.802 287.107,162.002 288.451,161.995 289.442 C 161.976 292.543,159.300 293.574,154.186 292.451 C 151.284 291.813,150.667 292.056,150.667 293.837 C 150.667 297.374,159.160 298.555,163.832 295.667 C 169.221 292.337,168.307 287.395,161.193 281.397 C 154.278 275.567,154.804 272.248,162.549 272.829 L 165.653 273.061 166.047 272.197 C 167.274 269.503,162.102 267.696,156.833 268.978 M312.682 269.031 C 300.670 271.385,297.541 289.246,308.106 295.143 C 317.589 300.436,328.958 295.657,330.871 285.575 C 333.014 274.275,324.666 266.682,312.682 269.031 M115.153 269.760 C 114.079 270.684,114.229 269.206,113.635 284.739 C 113.270 294.262,113.283 295.040,113.817 295.855 L 114.392 296.732 121.446 296.615 L 128.500 296.499 131.281 295.183 C 140.425 290.854,142.395 277.110,134.700 271.328 C 132.120 269.389,131.318 269.231,123.295 269.085 L 116.090 268.954 115.153 269.760 M143.931 269.516 C 142.765 270.150,142.741 270.339,142.514 280.833 C 142.411 285.600,142.233 290.788,142.119 292.363 C 141.874 295.760,142.422 296.667,144.722 296.667 C 146.955 296.667,147.131 296.052,147.393 287.348 C 147.517 283.215,147.726 277.723,147.856 275.145 L 148.094 270.456 147.169 269.728 C 146.098 268.886,145.201 268.827,143.931 269.516 M169.058 269.771 C 167.264 271.682,168.525 273.000,172.149 273.000 C 176.533 273.000,176.430 272.806,176.030 280.333 C 175.141 297.069,175.094 296.667,177.911 296.667 C 180.217 296.667,180.666 295.681,180.673 290.598 C 180.677 288.161,180.826 283.467,181.006 280.167 C 181.403 272.853,181.311 273.000,185.518 273.000 C 189.026 273.000,190.629 271.276,188.724 269.552 C 187.606 268.540,170.030 268.737,169.058 269.771 M191.852 269.750 L 191.001 270.500 190.673 279.667 C 190.492 284.708,190.246 290.275,190.125 292.036 C 189.870 295.758,190.329 296.667,192.463 296.667 C 195.233 296.667,195.622 294.412,195.635 278.288 C 195.639 272.814,196.645 272.044,202.130 273.317 C 206.702 274.377,204.562 281.000,199.648 281.000 C 195.658 281.000,195.692 282.078,199.903 289.000 C 201.186 291.108,202.555 293.461,202.947 294.228 C 204.153 296.594,206.786 297.526,208.115 296.057 C 208.979 295.102,208.843 294.739,205.833 290.000 C 202.503 284.755,202.413 284.315,204.513 283.513 C 211.089 281.001,211.694 272.482,205.500 269.629 C 203.294 268.613,193.040 268.704,191.852 269.750 M214.017 269.476 C 212.840 270.128,212.717 270.685,212.687 275.500 C 212.672 277.883,212.505 283.201,212.315 287.318 C 211.915 296.015,212.012 296.409,214.597 296.602 C 216.938 296.776,217.081 296.281,217.374 287.047 C 217.511 282.713,217.730 277.207,217.860 274.812 L 218.097 270.458 217.170 269.729 C 216.114 268.898,215.193 268.824,214.017 269.476 M223.152 269.818 C 222.355 270.615,222.333 270.770,222.333 275.673 C 222.333 278.443,222.171 284.034,221.973 288.097 L 221.613 295.483 222.343 296.075 C 223.212 296.779,232.684 296.942,235.656 296.305 C 241.802 294.986,244.334 288.213,240.312 283.849 C 238.710 282.111,238.711 282.147,240.236 280.189 C 243.151 276.448,241.712 270.987,237.425 269.526 C 234.586 268.559,224.199 268.771,223.152 269.818 M247.107 269.383 C 245.808 270.035,245.164 276.051,245.168 287.500 C 245.170 294.732,251.933 298.764,260.768 296.800 C 267.086 295.396,268.821 292.943,269.349 284.667 C 270.127 272.474,270.322 271.320,271.426 272.348 C 271.991 272.875,272.610 273.001,274.646 273.005 C 277.905 273.010,278.626 273.222,278.883 274.246 C 279.069 274.986,278.664 284.724,278.135 292.236 C 277.914 295.382,278.633 296.667,280.615 296.667 C 282.948 296.667,283.135 296.134,283.383 288.782 C 283.937 272.368,283.755 273.000,287.926 273.000 C 290.970 273.000,292.000 272.495,292.000 271.000 C 292.000 269.104,291.468 269.000,281.743 269.000 C 272.865 269.000,271.325 269.191,270.943 270.337 C 270.878 270.532,270.317 270.313,269.682 269.844 C 268.258 268.794,266.972 268.770,265.807 269.771 L 264.911 270.542 264.623 278.688 C 264.221 290.037,263.549 291.765,259.187 292.665 C 252.188 294.109,249.730 291.141,250.351 282.000 C 250.892 274.047,250.885 270.411,250.329 269.854 C 249.652 269.176,248.002 268.935,247.107 269.383 M294.611 269.510 C 293.494 270.116,293.431 270.515,293.373 277.333 C 293.347 280.358,293.165 285.585,292.968 288.949 L 292.611 295.064 293.364 295.866 C 294.306 296.869,296.365 296.968,297.278 296.055 C 297.834 295.499,297.911 294.524,298.114 285.472 C 298.237 279.987,298.432 274.426,298.548 273.114 C 298.854 269.639,297.186 268.111,294.611 269.510 M336.107 269.396 C 334.866 269.996,334.722 271.156,334.361 283.479 C 333.969 296.827,333.947 296.667,336.160 296.667 C 338.301 296.667,338.564 295.921,338.801 289.167 C 339.119 280.080,339.339 277.667,339.850 277.667 C 340.455 277.667,347.809 288.201,351.307 294.078 C 352.474 296.038,353.493 296.667,355.508 296.667 C 358.693 296.667,358.724 296.595,359.055 288.471 C 359.211 284.637,359.473 279.267,359.636 276.539 C 359.972 270.958,359.787 269.935,358.336 269.335 C 355.510 268.164,355.120 269.237,354.646 279.500 C 354.300 286.982,354.009 289.217,353.465 288.565 C 353.360 288.439,344.762 275.471,342.911 272.646 C 340.599 269.118,338.629 268.177,336.107 269.396 M41.863 270.104 C 41.152 270.624,41.103 271.068,40.666 281.000 C 40.485 285.125,40.113 289.842,39.840 291.483 C 39.075 296.083,39.871 296.656,46.440 296.231 C 50.529 295.966,50.428 296.114,50.666 290.005 C 50.963 282.423,51.534 282.413,55.293 289.919 C 58.577 296.477,58.163 296.139,63.060 296.285 C 70.527 296.509,70.836 296.190,67.880 291.297 C 63.919 284.740,62.667 282.520,62.667 282.053 C 62.667 281.554,64.472 278.911,67.898 274.395 C 71.198 270.044,70.950 269.667,64.794 269.667 C 59.195 269.667,59.816 269.295,56.144 274.842 C 51.712 281.538,51.187 281.547,51.541 274.926 C 51.760 270.819,51.754 270.765,50.974 270.219 C 49.951 269.503,42.809 269.412,41.863 270.104 M73.190 270.190 C 72.497 270.884,72.522 271.461,73.490 276.885 C 74.422 282.114,75.486 288.382,76.026 291.833 C 76.707 296.178,77.253 296.510,83.256 296.230 C 87.796 296.019,87.368 296.522,89.343 289.083 C 90.428 284.995,91.632 285.849,92.345 291.213 C 92.987 296.049,93.352 296.328,99.034 296.331 C 103.461 296.334,105.333 295.373,105.333 293.099 C 105.333 292.758,106.992 286.868,108.834 280.667 C 112.248 269.177,112.310 269.667,107.433 269.667 C 103.616 269.667,102.346 270.758,102.335 274.048 C 102.334 274.350,102.054 275.550,101.712 276.715 C 101.370 277.880,100.916 279.465,100.703 280.236 C 99.911 283.101,98.932 280.818,97.816 273.505 C 97.226 269.636,97.272 269.667,91.973 269.667 C 86.526 269.667,86.736 269.487,85.223 275.457 C 83.416 282.593,82.237 282.040,81.503 273.712 C 81.165 269.877,80.923 269.667,76.857 269.667 C 74.444 269.667,73.593 269.788,73.190 270.190 M163.583 270.188 C 164.043 270.285,164.333 270.592,164.333 270.980 C 164.333 271.559,164.074 271.610,161.345 271.572 C 158.482 271.532,158.305 271.573,157.095 272.550 C 153.761 275.243,154.874 277.740,162.102 283.785 C 170.071 290.450,164.036 298.311,153.250 295.316 C 151.532 294.839,151.382 293.473,153.083 293.798 C 162.843 295.667,166.713 290.122,159.606 284.452 C 153.164 279.312,151.557 276.685,152.940 273.558 C 154.289 270.508,158.614 269.138,163.583 270.188 M128.076 270.337 C 134.728 271.233,137.645 274.356,137.940 280.896 C 138.400 291.100,132.839 295.667,119.953 295.667 C 113.789 295.667,114.092 295.992,114.622 289.956 C 114.853 287.322,115.117 282.242,115.208 278.667 C 115.400 271.114,115.456 270.723,116.386 270.379 C 117.515 269.962,125.083 269.934,128.076 270.337 M187.688 270.554 C 188.477 271.343,187.615 271.667,184.721 271.667 C 179.811 271.667,179.827 271.626,179.484 285.000 C 179.243 294.403,179.109 295.333,178.000 295.333 C 176.840 295.333,176.696 294.390,177.004 288.813 C 177.945 271.804,177.972 271.923,173.243 271.667 C 170.172 271.500,168.544 270.595,170.731 270.271 C 172.878 269.952,187.327 270.193,187.688 270.554 M204.927 270.843 C 209.993 272.870,209.432 280.332,204.059 282.374 C 202.127 283.109,201.432 282.399,203.068 281.362 C 208.645 277.825,206.017 271.562,199.035 271.749 C 194.426 271.873,194.699 271.185,194.303 283.691 C 193.974 294.104,193.806 295.333,192.715 295.333 C 191.457 295.333,191.227 294.538,191.485 291.078 C 191.619 289.293,191.838 284.131,191.972 279.605 C 192.144 273.796,192.339 271.229,192.635 270.872 C 193.462 269.875,202.456 269.854,204.927 270.843 M237.444 270.973 C 241.055 272.721,241.589 276.573,238.696 280.004 C 236.965 282.057,236.979 282.665,238.792 284.150 C 243.550 288.049,240.892 294.061,233.855 295.314 C 226.455 296.633,222.351 295.619,222.801 292.584 C 222.916 291.804,223.153 286.778,223.328 281.415 C 223.654 271.391,223.793 270.499,225.083 270.214 C 227.382 269.706,235.909 270.230,237.444 270.973 M290.060 270.365 C 291.412 271.089,290.340 271.667,287.647 271.667 C 282.620 271.667,282.707 271.467,282.286 283.987 C 281.942 294.235,281.787 295.333,280.686 295.333 C 279.557 295.333,279.398 294.410,279.682 289.500 C 280.683 272.210,280.584 271.743,275.876 271.595 C 272.829 271.500,271.595 270.822,273.604 270.348 C 274.965 270.027,289.456 270.042,290.060 270.365 M323.333 271.204 C 332.529 275.609,332.308 290.296,322.984 294.481 C 310.449 300.106,298.423 289.016,304.268 277.222 C 307.517 270.664,316.371 267.870,323.333 271.204 M339.971 270.798 C 340.402 271.136,350.220 285.822,351.983 288.767 C 353.265 290.908,354.909 291.509,355.514 290.058 C 355.642 289.751,355.865 285.396,356.011 280.379 C 356.277 271.208,356.390 270.499,357.548 270.724 C 358.097 270.831,358.166 271.184,358.159 273.839 C 358.144 279.909,357.566 293.856,357.299 294.574 C 356.595 296.469,353.910 295.750,352.231 293.217 C 351.293 291.801,345.435 283.002,341.578 277.216 C 338.629 272.791,338.160 273.766,337.662 285.343 C 337.442 290.484,337.119 294.683,336.927 294.917 C 336.444 295.505,335.443 295.434,335.197 294.793 C 334.987 294.244,335.886 272.770,336.175 271.445 C 336.444 270.210,338.724 269.822,339.971 270.798 M146.086 270.750 C 146.904 271.373,146.274 294.603,145.422 295.250 C 144.733 295.772,144.602 295.770,143.851 295.221 C 143.270 294.796,143.259 294.390,143.633 286.637 C 143.849 282.162,144.058 276.910,144.096 274.968 C 144.180 270.774,144.692 269.688,146.086 270.750 M216.273 270.761 C 216.520 271.059,216.548 274.745,216.363 282.917 C 216.089 295.074,216.010 295.667,214.667 295.667 C 213.378 295.667,213.218 294.889,213.477 289.904 C 213.613 287.298,213.825 281.973,213.949 278.069 C 214.131 272.322,214.269 270.911,214.671 270.657 C 215.355 270.225,215.855 270.257,216.273 270.761 M249.143 270.857 C 249.590 271.304,249.630 271.953,249.417 275.274 C 248.908 283.189,249.085 289.344,249.864 290.833 C 251.895 294.720,259.169 295.621,262.707 292.424 C 264.940 290.406,265.006 290.133,265.631 280.320 C 266.214 271.175,266.386 270.333,267.667 270.333 C 269.147 270.333,269.150 270.446,268.021 286.076 C 267.489 293.430,264.927 295.667,257.034 295.667 C 250.650 295.667,248.001 294.239,246.832 290.167 C 246.172 287.870,246.898 271.146,247.679 270.652 C 248.350 270.227,248.540 270.254,249.143 270.857 M297.175 271.027 C 297.749 272.836,296.930 294.403,296.262 295.072 C 295.132 296.202,294.158 295.202,294.201 292.957 C 294.476 278.422,294.815 271.232,295.245 270.803 C 295.933 270.115,296.922 270.230,297.175 271.027 M227.742 271.745 C 225.743 272.253,225.055 279.875,226.878 281.309 C 228.524 282.604,233.733 282.001,236.000 280.253 C 239.207 277.781,237.644 271.806,233.736 271.602 C 230.980 271.458,228.653 271.513,227.742 271.745 M314.333 271.613 C 307.474 272.906,303.368 281.862,306.651 288.370 C 311.182 297.352,324.065 296.073,326.888 286.360 C 329.450 277.547,323.007 269.978,314.333 271.613 M118.735 272.489 C 117.946 273.492,117.778 274.941,117.314 284.731 C 116.844 294.664,116.505 294.136,123.220 293.945 C 130.965 293.726,134.785 290.194,135.250 282.820 C 135.751 274.873,132.454 271.667,123.784 271.667 C 119.502 271.667,119.364 271.689,118.735 272.489 M234.105 273.150 C 237.538 274.374,237.659 278.114,234.320 279.840 C 233.045 280.500,227.909 280.526,227.369 279.876 C 226.690 279.059,227.288 273.736,228.125 273.150 C 229.001 272.537,232.386 272.536,234.105 273.150 M320.493 273.359 C 327.564 276.005,328.082 288.293,321.272 291.859 C 316.991 294.101,310.332 292.611,308.233 288.943 C 303.169 280.089,311.199 269.882,320.493 273.359 M128.776 273.467 C 136.342 275.248,136.295 287.864,128.709 291.576 C 126.735 292.541,119.491 292.949,118.676 292.140 C 118.118 291.586,118.909 274.746,119.540 273.750 C 120.118 272.838,125.411 272.676,128.776 273.467 M201.397 283.931 C 201.296 284.991,201.529 285.572,202.837 287.515 C 205.081 290.849,207.085 294.593,206.839 294.991 C 206.449 295.622,205.391 295.342,204.672 294.417 C 203.929 293.460,199.967 286.908,198.638 284.438 C 197.994 283.242,198.464 282.667,200.082 282.667 L 201.518 282.667 201.397 283.931 M227.951 282.885 C 225.299 283.344,224.354 293.057,226.868 294.013 C 233.519 296.542,240.331 290.934,237.357 285.378 C 236.497 283.771,231.099 282.340,227.951 282.885 M234.960 285.036 C 237.947 286.077,237.607 290.890,234.455 292.207 C 233.063 292.789,227.633 292.833,227.067 292.267 C 226.811 292.011,226.667 290.711,226.667 288.667 C 226.667 286.622,226.811 285.322,227.067 285.067 C 227.581 284.552,233.506 284.529,234.960 285.036 " stroke="none" fill="#c6be9f" fill-rule="evenodd"></path><path id="path4" d="M182.333 25.016 C 178.209 25.676,174.210 26.817,169.333 28.726 C 159.377 32.624,145.323 43.430,134.591 55.441 C 133.258 56.933,131.845 58.485,131.452 58.890 C 128.745 61.678,121.024 71.891,118.177 76.449 C 117.816 77.027,117.290 77.751,117.010 78.057 C 116.729 78.364,115.524 80.216,114.333 82.174 C 113.141 84.132,111.673 86.475,111.069 87.380 C 108.738 90.875,98.667 110.204,98.667 111.183 C 98.667 111.321,98.305 112.198,97.862 113.133 C 97.420 114.068,96.651 115.808,96.153 117.000 C 95.655 118.192,94.981 119.767,94.655 120.500 C 93.888 122.225,92.749 125.389,92.134 127.500 C 91.867 128.417,91.495 129.440,91.307 129.774 C 90.687 130.873,87.999 139.569,87.321 142.667 C 87.101 143.675,86.647 145.400,86.312 146.500 C 85.978 147.600,85.482 149.625,85.211 151.000 C 84.939 152.375,84.551 154.325,84.347 155.333 C 83.136 161.344,82.896 163.029,82.479 168.481 C 81.736 178.193,82.201 193.520,83.302 195.620 C 83.460 195.921,83.691 196.842,83.816 197.667 C 85.931 211.689,94.974 222.988,109.333 229.551 C 109.975 229.844,111.250 230.461,112.167 230.923 C 114.066 231.878,119.103 233.852,121.333 234.515 C 122.158 234.761,123.733 235.258,124.833 235.620 C 129.144 237.040,131.259 237.674,132.683 237.973 C 133.499 238.144,134.992 238.501,136.000 238.768 C 137.008 239.034,138.958 239.441,140.333 239.672 C 141.708 239.903,144.077 240.371,145.596 240.713 C 147.116 241.054,148.909 241.333,149.580 241.333 C 150.252 241.333,152.308 241.623,154.150 241.976 C 157.872 242.690,165.312 243.583,171.667 244.079 C 177.164 244.507,207.110 244.499,212.000 244.068 C 219.018 243.448,225.794 242.631,229.333 241.977 C 231.258 241.621,233.401 241.331,234.095 241.332 C 234.790 241.333,236.590 241.045,238.095 240.694 C 239.601 240.342,242.249 239.802,243.979 239.494 C 245.710 239.187,247.810 238.735,248.646 238.490 C 249.482 238.245,251.292 237.725,252.667 237.334 C 258.428 235.695,266.692 232.853,269.327 231.605 C 270.882 230.869,272.757 230.030,273.494 229.741 C 274.230 229.452,275.808 228.618,277.000 227.889 C 278.192 227.159,279.958 226.076,280.925 225.481 C 291.846 218.767,297.182 209.803,300.467 192.652 C 301.532 187.092,301.473 172.855,300.365 167.993 C 300.178 167.172,299.797 165.075,299.520 163.333 C 298.428 156.474,295.171 143.522,293.979 141.294 C 293.750 140.866,293.447 140.062,293.306 139.508 C 293.031 138.429,290.872 132.274,290.380 131.167 C 290.217 130.800,289.370 128.850,288.497 126.833 C 284.166 116.830,281.139 110.809,275.430 100.833 C 273.867 98.103,273.204 97.013,270.856 93.314 C 269.743 91.562,268.683 89.879,268.500 89.574 C 267.497 87.907,262.170 80.357,259.863 77.333 C 252.170 67.252,249.656 64.308,240.833 55.051 C 236.624 50.635,228.424 43.360,223.593 39.756 C 217.287 35.052,216.090 34.243,212.957 32.564 C 211.422 31.742,209.492 30.690,208.667 30.227 C 200.871 25.850,190.257 23.750,182.333 25.016 M195.620 26.867 C 210.816 30.275,227.971 42.512,247.212 63.667 C 253.817 70.929,265.368 86.554,270.500 95.167 C 271.374 96.633,272.577 98.583,273.173 99.500 C 276.446 104.533,283.802 119.002,287.068 126.833 C 291.114 136.533,292.519 140.558,295.443 150.833 C 302.518 175.689,300.723 201.605,291.025 214.622 C 288.501 218.009,282.495 223.414,279.667 224.843 C 279.025 225.167,277.443 226.073,276.151 226.856 C 262.151 235.340,230.715 242.345,204.337 242.857 C 200.027 242.941,195.986 243.094,195.358 243.197 C 190.474 244.002,158.094 241.761,148.833 239.977 C 128.117 235.986,117.618 232.668,106.500 226.598 C 91.586 218.457,85.655 208.295,83.681 187.500 C 82.583 175.938,84.362 157.947,87.806 145.782 C 88.421 143.610,89.489 139.808,90.180 137.333 C 91.804 131.519,96.590 118.864,99.808 111.877 C 101.197 108.862,102.333 106.318,102.333 106.223 C 102.333 105.780,110.146 91.376,112.308 87.833 C 115.818 82.082,119.333 76.606,120.010 75.833 C 120.331 75.467,121.530 73.817,122.675 72.167 C 129.092 62.917,142.461 48.218,149.355 42.833 C 153.727 39.418,157.049 36.992,158.500 36.154 C 159.417 35.624,160.842 34.711,161.667 34.125 C 163.249 32.999,168.799 30.360,173.000 28.734 C 180.285 25.916,188.393 25.246,195.620 26.867 M183.290 55.324 C 182.818 56.053,179.029 63.515,174.870 71.908 C 170.711 80.300,166.930 87.842,166.468 88.667 C 166.006 89.492,164.980 91.517,164.188 93.167 C 163.396 94.817,161.004 99.684,158.872 103.982 C 156.189 109.392,155.058 112.008,155.197 112.482 C 155.550 113.687,162.282 124.926,165.990 130.500 C 166.843 131.783,168.015 133.668,168.594 134.689 C 170.416 137.903,169.023 137.634,185.037 137.864 C 204.495 138.144,205.803 138.240,205.937 139.401 C 206.011 140.043,203.871 144.638,198.521 155.329 C 190.275 171.804,190.520 171.099,192.143 173.681 C 192.771 174.682,193.847 176.475,194.534 177.667 C 195.221 178.858,196.700 181.258,197.821 183.000 C 198.942 184.742,200.551 187.308,201.395 188.702 C 203.887 192.818,205.104 194.645,206.197 195.913 L 207.228 197.108 218.864 197.039 C 225.264 197.002,233.350 196.900,236.833 196.814 C 240.317 196.728,249.167 196.519,256.500 196.351 C 263.833 196.183,270.092 195.946,270.407 195.824 C 271.031 195.584,270.467 194.093,268.926 191.906 C 268.567 191.396,267.685 189.821,266.966 188.406 C 266.247 186.991,264.893 184.558,263.957 183.000 C 263.022 181.442,261.799 179.342,261.240 178.333 C 259.913 175.940,257.215 171.927,256.578 171.398 C 256.106 171.007,244.462 170.728,226.607 170.680 C 220.855 170.664,219.714 170.048,221.341 167.833 C 221.476 167.650,223.008 164.725,224.745 161.333 C 230.967 149.186,234.117 143.137,235.180 141.295 C 237.051 138.051,237.039 137.963,234.020 133.167 C 233.328 132.067,232.090 130.042,231.270 128.667 C 230.450 127.292,228.976 124.892,227.996 123.333 C 227.015 121.775,225.711 119.600,225.097 118.500 C 224.484 117.400,223.274 115.450,222.408 114.167 L 220.833 111.833 203.239 111.833 C 187.964 111.833,185.604 111.767,185.328 111.333 C 184.817 110.530,184.964 109.232,185.667 108.333 C 186.025 107.875,186.322 107.301,186.326 107.058 C 186.330 106.815,186.917 105.615,187.631 104.392 C 188.758 102.460,193.309 93.822,198.712 83.362 C 200.962 79.007,201.606 80.743,191.589 64.167 C 190.481 62.333,188.977 59.783,188.247 58.500 C 185.463 53.603,184.716 53.125,183.290 55.324 M185.654 56.730 C 186.027 57.131,186.333 57.583,186.333 57.736 C 186.333 57.888,186.899 58.947,187.591 60.089 C 188.282 61.232,189.794 64.079,190.950 66.417 C 192.106 68.754,193.190 70.667,193.359 70.667 C 194.052 70.667,193.619 71.668,192.917 71.691 C 191.860 71.725,190.227 72.739,189.838 73.603 C 189.603 74.124,189.216 74.333,188.489 74.333 C 187.736 74.333,187.123 74.687,186.151 75.683 C 185.280 76.575,184.339 77.157,183.372 77.400 C 182.431 77.637,181.854 77.987,181.750 78.384 C 181.635 78.823,181.279 79.000,180.513 79.000 C 179.854 79.000,179.199 79.263,178.824 79.677 C 178.487 80.050,177.543 80.523,176.728 80.728 C 175.767 80.970,175.188 81.319,175.083 81.717 C 174.995 82.056,174.739 82.333,174.515 82.333 C 174.290 82.333,173.935 82.711,173.724 83.173 C 173.514 83.635,172.988 84.148,172.556 84.312 C 172.124 84.476,171.522 84.859,171.218 85.163 C 170.747 85.634,170.667 85.641,170.667 85.210 C 170.667 84.933,170.817 84.613,171.000 84.500 C 171.183 84.387,171.336 83.965,171.339 83.564 C 171.342 83.162,171.790 82.083,172.333 81.167 C 172.877 80.250,173.325 79.272,173.328 78.992 C 173.331 78.713,174.289 76.538,175.456 74.159 C 176.624 71.780,177.915 69.083,178.326 68.167 C 179.539 65.458,183.417 57.562,183.933 56.750 C 184.528 55.815,184.799 55.812,185.654 56.730 M221.029 114.417 C 221.597 115.196,222.659 116.883,223.389 118.167 C 224.119 119.450,225.611 121.925,226.706 123.667 C 232.511 132.900,234.990 137.396,234.638 138.053 C 234.376 138.543,233.483 138.639,227.752 138.792 C 218.913 139.027,215.524 139.379,213.541 140.270 C 212.647 140.671,211.512 141.000,211.020 141.000 C 210.460 141.000,209.766 141.375,209.167 142.000 C 207.857 143.367,207.184 143.334,207.498 141.917 C 207.630 141.321,207.762 139.558,207.792 138.000 C 207.840 135.548,207.981 134.920,208.840 133.333 C 209.693 131.758,209.849 131.077,209.942 128.500 L 210.050 125.500 208.692 124.182 C 207.945 123.458,207.333 122.618,207.333 122.317 C 207.333 121.456,206.331 119.667,205.848 119.667 C 205.608 119.667,205.333 119.367,205.237 119.000 C 205.141 118.633,204.823 118.333,204.531 118.333 C 204.151 118.333,204.000 118.016,204.000 117.218 C 204.000 116.527,203.747 115.874,203.333 115.500 C 201.568 113.903,204.998 113.271,216.581 113.062 L 219.996 113.000 221.029 114.417 M181.916 114.474 C 181.416 115.010,180.667 115.009,180.667 114.472 C 180.667 113.992,181.316 113.697,181.902 113.912 C 182.207 114.025,182.211 114.159,181.916 114.474 M148.584 119.917 C 148.298 120.237,145.041 126.575,141.345 134.000 C 132.911 150.944,133.499 150.358,130.235 145.082 C 128.143 141.700,124.570 136.135,123.870 135.167 C 122.964 133.914,121.085 136.529,118.002 143.333 C 117.628 144.158,116.999 145.433,116.604 146.167 C 116.210 146.900,115.302 148.615,114.588 149.979 C 113.874 151.342,113.032 152.842,112.716 153.312 C 112.120 154.200,111.522 155.429,111.216 156.395 C 111.117 156.705,111.310 157.305,111.643 157.729 C 111.977 158.153,112.822 159.624,113.522 160.997 C 114.222 162.371,115.313 164.171,115.947 164.997 C 116.581 165.824,118.177 168.750,119.493 171.500 C 120.810 174.250,123.286 178.750,124.995 181.500 C 126.705 184.250,129.024 188.075,130.149 190.000 C 132.376 193.811,135.084 198.066,136.622 200.167 C 137.809 201.789,141.013 207.043,142.618 210.000 C 146.002 216.234,144.790 215.833,160.262 215.833 C 175.734 215.833,174.789 216.512,170.001 208.833 C 164.934 200.706,164.839 200.493,165.883 199.624 C 166.446 199.156,167.858 199.086,188.833 198.484 C 197.523 198.234,198.180 198.102,197.019 196.838 C 196.680 196.469,195.510 194.517,194.419 192.500 C 193.329 190.483,191.756 187.708,190.923 186.333 C 190.091 184.958,188.319 181.958,186.985 179.667 C 183.499 173.674,185.903 174.334,167.546 174.328 C 148.419 174.322,148.466 174.335,151.107 169.953 C 151.731 168.918,153.515 165.543,155.072 162.453 C 156.628 159.362,159.343 154.108,161.105 150.777 C 165.176 143.078,165.072 143.556,163.310 140.581 C 162.524 139.253,161.359 137.267,160.723 136.167 C 160.086 135.067,159.113 133.417,158.559 132.500 C 158.006 131.583,156.882 129.708,156.061 128.333 C 154.459 125.647,151.709 121.305,150.837 120.083 C 150.196 119.185,149.295 119.118,148.584 119.917 M151.153 122.888 C 151.512 123.591,152.062 124.548,152.376 125.013 C 152.689 125.479,153.426 126.754,154.012 127.847 C 154.599 128.939,155.471 130.417,155.951 131.131 C 156.431 131.845,157.221 133.326,157.706 134.422 C 158.191 135.518,158.807 136.670,159.074 136.983 C 160.156 138.246,160.383 139.667,159.502 139.667 C 159.064 139.667,158.613 139.517,158.500 139.333 C 158.098 138.684,156.778 139.014,155.833 140.000 C 154.944 140.929,154.705 141.000,152.489 141.000 C 150.527 141.000,149.996 141.118,149.500 141.667 C 149.051 142.162,148.473 142.333,147.246 142.333 C 145.973 142.333,145.370 142.523,144.606 143.167 C 143.862 143.793,143.228 144.001,142.058 144.005 C 140.184 144.011,138.992 144.559,138.428 145.673 L 138.010 146.500 138.005 145.583 C 138.002 145.079,138.150 144.667,138.333 144.667 C 138.517 144.667,138.669 144.404,138.673 144.083 C 138.676 143.762,139.126 142.689,139.673 141.697 C 140.219 140.705,140.667 139.728,140.667 139.527 C 140.667 138.975,142.730 134.377,143.750 132.656 C 144.242 131.825,144.858 130.541,145.118 129.804 C 145.602 128.433,148.206 123.061,149.016 121.765 C 149.599 120.832,150.288 121.194,151.153 122.888 M135.182 151.477 C 135.474 151.923,136.013 153.077,136.380 154.042 C 136.746 155.007,137.488 156.353,138.027 157.035 C 138.567 157.716,139.235 158.915,139.511 159.699 C 139.788 160.483,140.955 162.560,142.104 164.313 C 143.254 166.066,144.628 168.325,145.159 169.333 C 147.321 173.440,148.207 174.529,150.228 175.558 C 151.894 176.406,152.191 176.702,152.370 177.688 C 152.631 179.124,157.593 189.094,159.147 191.305 C 159.783 192.211,160.514 193.450,160.770 194.059 C 161.026 194.668,161.701 195.899,162.270 196.793 C 162.840 197.688,163.408 199.113,163.534 199.960 C 163.675 200.909,164.246 202.214,165.021 203.359 C 165.714 204.382,166.574 205.732,166.932 206.359 C 167.291 206.987,168.427 208.835,169.459 210.468 C 172.122 214.684,172.270 214.477,166.667 214.374 C 157.690 214.209,154.012 213.458,154.937 211.977 C 155.197 211.561,155.333 209.645,155.333 206.410 L 155.333 201.477 154.417 200.938 C 153.766 200.556,152.192 200.330,149.000 200.160 C 146.507 200.028,143.999 199.716,143.376 199.460 C 142.758 199.207,141.200 199.000,139.915 199.000 C 137.027 199.000,137.341 199.328,132.535 191.262 C 130.537 187.910,128.071 183.892,127.053 182.333 C 122.901 175.973,122.103 174.024,123.333 173.256 C 123.733 173.006,124.000 172.479,124.000 171.939 C 124.000 171.443,125.200 168.573,126.667 165.561 C 128.133 162.549,129.333 159.911,129.333 159.700 C 129.333 159.295,133.173 151.799,133.747 151.083 C 134.237 150.473,134.587 150.568,135.182 151.477 M215.555 171.135 C 218.865 171.163,219.364 171.245,220.055 171.878 C 220.992 172.735,222.151 173.131,223.500 173.057 C 225.923 172.923,226.651 173.534,224.589 173.972 C 223.538 174.196,222.592 174.518,222.486 174.689 C 222.380 174.860,221.945 175.000,221.519 175.000 C 220.530 175.000,217.162 178.581,216.003 180.864 C 214.853 183.128,212.996 186.285,211.998 187.672 C 211.538 188.311,210.488 190.212,209.664 191.898 C 208.841 193.583,208.026 194.971,207.855 194.981 C 207.470 195.004,206.000 193.653,206.000 193.276 C 206.000 193.125,204.821 191.238,203.381 189.084 C 200.827 185.265,197.163 179.509,196.008 177.500 C 195.691 176.950,194.810 175.539,194.050 174.365 C 192.709 172.295,192.407 171.371,192.908 170.870 C 193.041 170.737,197.353 170.735,202.491 170.866 C 207.629 170.996,213.508 171.117,215.555 171.135 M156.833 268.325 C 153.168 269.268,150.611 272.223,150.611 275.517 C 150.611 278.345,152.309 280.563,158.602 285.957 C 163.886 290.486,161.486 293.513,153.969 291.804 C 150.984 291.125,150.000 291.577,150.000 293.629 C 150.000 299.750,164.279 299.120,167.042 292.878 C 168.779 288.956,167.456 285.752,162.402 281.644 C 154.888 275.535,154.982 272.892,162.689 273.502 L 165.665 273.737 166.527 272.755 L 167.388 271.773 168.335 272.720 C 169.215 273.600,169.467 273.667,171.911 273.667 C 175.861 273.667,175.740 273.444,175.341 280.000 C 175.157 283.025,175.005 287.852,175.003 290.726 L 175.000 295.952 175.878 296.642 C 177.654 298.039,180.394 297.202,180.983 295.083 C 181.173 294.396,181.331 291.583,181.333 288.833 C 181.338 281.258,181.900 274.597,182.578 274.083 C 182.905 273.835,184.149 273.667,185.656 273.667 C 187.351 273.667,188.418 273.504,188.890 273.173 C 190.157 272.285,190.254 273.013,189.975 281.333 C 189.432 297.553,189.373 295.615,190.435 296.528 C 192.217 298.062,195.039 297.279,195.649 295.083 C 195.840 294.396,195.997 291.846,195.998 289.417 C 196.000 284.388,196.230 284.032,197.833 286.583 C 198.379 287.454,198.888 288.317,198.963 288.500 C 199.038 288.683,199.489 289.433,199.966 290.167 C 200.443 290.900,201.354 292.504,201.991 293.730 C 203.719 297.060,206.392 298.265,208.455 296.642 C 209.673 295.684,209.562 294.844,207.861 292.158 C 203.081 284.609,203.125 284.760,205.397 283.733 C 212.140 280.686,211.909 270.776,205.047 268.720 C 202.412 267.931,193.030 268.218,191.516 269.134 L 190.199 269.931 189.151 269.132 C 188.104 268.334,188.101 268.333,178.852 268.333 L 169.600 268.333 168.434 269.500 L 167.267 270.666 166.364 269.700 C 164.926 268.160,160.153 267.472,156.833 268.325 M312.927 268.343 C 305.760 269.551,301.540 275.093,301.515 283.333 L 301.500 288.167 302.610 290.167 C 306.806 297.731,316.943 300.169,324.833 295.511 C 326.613 294.460,329.333 291.827,329.333 291.154 C 329.333 290.931,329.551 290.568,329.816 290.347 C 330.082 290.127,330.443 289.471,330.619 288.890 C 334.715 275.346,326.688 266.025,312.927 268.343 M115.105 268.983 C 113.439 269.999,113.421 270.131,113.164 283.376 C 112.861 298.918,112.094 297.333,119.917 297.333 C 126.592 297.332,129.309 296.874,132.520 295.205 C 141.802 290.382,142.698 275.177,134.000 270.091 C 130.775 268.204,117.644 267.435,115.105 268.983 M144.167 268.648 C 142.494 269.333,142.432 269.634,142.039 279.000 C 141.835 283.858,141.578 289.518,141.468 291.577 L 141.268 295.320 142.275 296.327 C 143.610 297.661,145.509 297.732,146.675 296.491 C 147.643 295.460,147.935 293.465,147.966 287.667 C 147.978 285.375,148.166 280.799,148.384 277.498 C 148.602 274.197,148.675 271.080,148.548 270.571 C 148.144 268.965,145.852 267.959,144.167 268.648 M214.167 268.648 C 212.077 269.504,212.082 269.454,211.591 291.608 L 211.500 295.717 212.435 296.525 C 215.319 299.018,217.360 297.172,217.721 291.744 C 218.373 281.941,218.699 271.127,218.369 270.260 C 217.807 268.782,215.759 267.997,214.167 268.648 M223.296 268.833 C 221.848 269.620,221.712 270.578,221.514 281.333 C 221.412 286.925,221.241 292.433,221.135 293.572 C 220.814 297.019,221.385 297.333,227.965 297.333 C 236.722 297.333,240.043 296.149,241.985 292.333 C 243.428 289.499,243.128 286.425,241.157 283.844 C 239.754 282.006,239.753 281.979,240.990 280.181 C 244.024 275.772,242.367 270.609,237.352 268.840 C 235.366 268.139,224.582 268.134,223.296 268.833 M246.609 268.904 C 245.253 269.745,245.000 270.689,244.997 274.932 C 244.995 277.078,244.840 280.971,244.653 283.583 C 244.202 289.869,244.943 292.669,247.653 294.928 C 252.182 298.702,260.891 298.832,265.893 295.200 C 268.788 293.097,269.976 290.153,270.027 284.952 C 270.042 283.420,270.230 280.217,270.444 277.833 L 270.833 273.500 274.000 273.604 C 278.542 273.754,278.335 273.619,278.323 276.439 C 278.317 277.756,278.176 279.886,278.008 281.174 C 277.841 282.461,277.673 286.274,277.635 289.648 L 277.566 295.782 278.468 296.557 C 279.692 297.610,281.608 297.606,282.748 296.550 C 283.544 295.812,283.606 295.512,283.799 291.466 C 284.240 282.239,284.786 274.680,285.041 274.266 C 285.211 273.990,286.371 273.765,288.237 273.645 C 289.848 273.542,291.418 273.343,291.724 273.203 C 292.818 272.704,292.954 273.892,292.651 281.340 C 291.997 297.459,291.977 297.333,295.278 297.333 C 298.317 297.333,298.662 296.172,298.665 285.952 C 298.666 281.617,298.825 276.524,299.019 274.635 C 299.600 268.977,298.006 267.142,294.137 269.014 L 292.730 269.695 291.615 269.016 C 290.082 268.081,273.355 267.960,271.593 268.871 C 270.635 269.367,270.480 269.367,269.641 268.871 C 266.448 266.985,264.340 268.975,264.321 273.895 C 264.262 289.034,263.238 291.866,257.681 292.268 C 251.320 292.728,250.550 291.129,251.079 278.566 C 251.442 269.967,251.371 269.428,249.781 268.703 C 248.656 268.191,247.656 268.254,246.609 268.904 M336.167 268.648 C 334.323 269.403,334.317 269.437,333.987 281.048 C 333.818 286.980,333.583 292.462,333.465 293.230 C 332.928 296.733,335.978 298.740,338.305 296.413 L 339.225 295.493 339.470 288.497 C 339.834 278.112,339.867 278.023,342.171 281.333 C 342.873 282.342,343.880 283.767,344.411 284.500 C 344.941 285.233,346.480 287.558,347.831 289.667 C 351.560 295.484,351.916 295.959,353.084 296.671 C 355.427 298.099,358.730 297.255,359.306 295.081 C 360.046 292.291,360.394 270.586,359.715 269.667 C 358.842 268.486,357.634 268.128,356.339 268.664 C 354.473 269.437,354.388 269.807,354.050 278.607 C 353.663 288.694,354.004 288.305,350.304 282.871 C 347.113 278.184,347.021 278.046,346.172 276.667 C 341.281 268.728,339.486 267.290,336.167 268.648 M42.386 268.998 C 40.541 269.434,40.530 269.480,40.130 277.931 C 39.924 282.277,39.483 287.812,39.149 290.231 C 38.249 296.762,38.697 297.205,45.929 296.932 C 51.070 296.737,51.083 296.723,51.346 291.161 C 51.630 285.163,52.314 285.015,54.719 290.433 C 57.476 296.641,57.686 296.799,63.408 296.944 C 72.003 297.163,72.262 296.673,67.488 289.240 C 66.303 287.395,65.333 285.753,65.333 285.591 C 65.333 285.430,64.958 284.746,64.500 284.072 C 63.109 282.025,63.078 282.091,69.333 273.713 C 71.677 270.574,71.639 270.508,73.337 280.500 C 73.898 283.800,74.593 287.700,74.881 289.167 C 75.169 290.633,75.529 292.644,75.681 293.636 C 76.144 296.665,76.487 296.833,82.208 296.833 L 87.063 296.833 87.785 295.928 C 88.431 295.118,90.012 290.744,90.003 289.791 C 90.001 289.584,90.211 289.240,90.469 289.026 C 91.040 288.551,91.422 289.601,92.009 293.264 C 92.540 296.579,92.900 296.796,98.122 296.953 C 105.249 297.168,105.323 297.094,107.650 287.333 C 107.978 285.958,108.478 284.158,108.761 283.333 C 109.045 282.508,109.675 280.483,110.162 278.833 C 110.650 277.183,111.349 274.933,111.717 273.833 C 112.084 272.733,112.460 271.593,112.552 271.299 C 113.049 269.708,111.269 268.833,107.536 268.833 C 103.139 268.833,102.581 269.228,101.872 272.844 C 100.549 279.589,99.521 279.467,98.309 272.421 C 97.705 268.904,97.581 268.833,92.048 268.835 C 87.051 268.836,86.144 269.091,85.800 270.593 C 85.072 273.778,83.560 278.026,83.261 277.728 C 82.790 277.256,82.011 273.770,82.005 272.102 C 81.994 269.008,75.970 267.338,72.468 269.458 C 71.459 270.069,71.415 270.069,70.482 269.458 C 69.302 268.685,60.708 268.523,59.439 269.250 C 58.649 269.702,57.393 271.367,55.483 274.492 C 52.566 279.266,52.111 279.193,52.451 274.004 C 52.701 270.195,52.387 269.506,50.167 268.992 C 48.578 268.623,43.954 268.628,42.386 268.998 M164.510 269.149 C 165.976 269.762,166.596 270.991,166.047 272.197 L 165.653 273.061 162.549 272.829 C 154.804 272.248,154.278 275.567,161.193 281.397 C 167.441 286.664,168.698 290.066,165.810 293.885 C 162.358 298.448,150.667 298.411,150.667 293.837 C 150.667 292.056,151.284 291.813,154.186 292.451 C 159.300 293.574,161.976 292.543,161.995 289.442 C 162.002 288.451,160.802 287.107,156.957 283.796 C 150.832 278.523,149.692 275.214,152.730 271.528 C 154.862 268.942,161.031 267.696,164.510 269.149 M321.067 269.033 C 335.084 271.942,334.537 293.113,320.353 296.688 C 311.121 299.015,302.566 293.768,301.840 285.333 C 300.859 273.934,309.477 266.628,321.067 269.033 M131.730 269.618 C 142.162 273.028,141.860 290.174,131.281 295.183 L 128.500 296.499 121.446 296.615 L 114.392 296.732 113.817 295.855 C 113.283 295.040,113.270 294.262,113.635 284.739 C 114.229 269.206,114.079 270.684,115.153 269.760 L 116.090 268.954 123.295 269.085 C 127.653 269.164,130.986 269.375,131.730 269.618 M147.169 269.728 L 148.094 270.456 147.856 275.145 C 147.726 277.723,147.517 283.215,147.393 287.348 C 147.131 296.052,146.955 296.667,144.722 296.667 C 142.422 296.667,141.874 295.760,142.119 292.363 C 142.233 290.788,142.411 285.600,142.514 280.833 C 142.741 270.339,142.765 270.150,143.931 269.516 C 145.201 268.827,146.098 268.886,147.169 269.728 M188.724 269.552 C 190.629 271.276,189.026 273.000,185.518 273.000 C 181.311 273.000,181.403 272.853,181.006 280.167 C 180.826 283.467,180.677 288.161,180.673 290.598 C 180.666 295.681,180.217 296.667,177.911 296.667 C 175.094 296.667,175.141 297.069,176.030 280.333 C 176.430 272.806,176.533 273.000,172.149 273.000 C 168.525 273.000,167.264 271.682,169.058 269.771 C 170.030 268.737,187.606 268.540,188.724 269.552 M205.500 269.629 C 211.694 272.482,211.089 281.001,204.513 283.513 C 202.413 284.315,202.503 284.755,205.833 290.000 C 208.843 294.739,208.979 295.102,208.115 296.057 C 206.786 297.526,204.153 296.594,202.947 294.228 C 202.555 293.461,201.186 291.108,199.903 289.000 C 195.692 282.078,195.658 281.000,199.648 281.000 C 204.562 281.000,206.702 274.377,202.130 273.317 C 196.645 272.044,195.639 272.814,195.635 278.288 C 195.622 294.412,195.233 296.667,192.463 296.667 C 190.329 296.667,189.870 295.758,190.125 292.036 C 190.246 290.275,190.492 284.708,190.673 279.667 L 191.001 270.500 191.852 269.750 C 193.040 268.704,203.294 268.613,205.500 269.629 M217.170 269.729 L 218.097 270.458 217.860 274.812 C 217.730 277.207,217.511 282.713,217.374 287.047 C 217.081 296.281,216.938 296.776,214.597 296.602 C 212.012 296.409,211.915 296.015,212.315 287.318 C 212.505 283.201,212.672 277.883,212.687 275.500 C 212.725 269.333,214.220 267.408,217.170 269.729 M237.425 269.526 C 241.712 270.987,243.151 276.448,240.236 280.189 C 238.711 282.147,238.710 282.111,240.312 283.849 C 244.334 288.213,241.802 294.986,235.656 296.305 C 232.684 296.942,223.212 296.779,222.343 296.075 L 221.613 295.483 221.973 288.097 C 222.171 284.034,222.333 278.443,222.333 275.673 C 222.333 268.689,221.979 269.000,229.925 269.000 C 234.477 269.000,236.245 269.124,237.425 269.526 M250.329 269.854 C 250.885 270.411,250.892 274.047,250.351 282.000 C 249.730 291.141,252.188 294.109,259.187 292.665 C 263.549 291.765,264.221 290.037,264.623 278.688 L 264.911 270.542 265.807 269.771 C 266.972 268.770,268.258 268.794,269.682 269.844 C 270.317 270.313,270.878 270.532,270.943 270.337 C 271.416 268.917,289.368 268.194,291.259 269.519 C 293.508 271.094,291.683 273.000,287.926 273.000 C 283.755 273.000,283.937 272.368,283.383 288.782 C 283.135 296.134,282.948 296.667,280.615 296.667 C 278.633 296.667,277.914 295.382,278.135 292.236 C 278.664 284.724,279.069 274.986,278.883 274.246 C 278.626 273.222,277.905 273.010,274.646 273.005 C 272.610 273.001,271.991 272.875,271.426 272.348 C 270.322 271.320,270.127 272.474,269.349 284.667 C 268.821 292.943,267.086 295.396,260.768 296.800 C 251.933 298.764,245.170 294.732,245.168 287.500 C 245.166 282.141,245.721 271.476,246.047 270.624 C 246.650 269.042,249.082 268.604,250.329 269.854 M297.894 269.864 C 298.712 270.682,298.747 270.855,298.548 273.114 C 298.432 274.426,298.237 279.987,298.114 285.472 C 297.911 294.524,297.834 295.499,297.278 296.055 C 296.365 296.968,294.306 296.869,293.364 295.866 L 292.611 295.064 292.968 288.949 C 293.165 285.585,293.347 280.358,293.373 277.333 C 293.431 270.515,293.494 270.116,294.611 269.510 C 295.934 268.791,296.929 268.899,297.894 269.864 M340.171 269.396 C 340.665 269.621,341.848 271.024,342.911 272.646 C 344.762 275.471,353.360 288.439,353.465 288.565 C 354.009 289.217,354.300 286.982,354.646 279.500 C 355.120 269.237,355.510 268.164,358.336 269.335 C 359.787 269.935,359.972 270.958,359.636 276.539 C 359.473 279.267,359.211 284.637,359.055 288.471 C 358.724 296.595,358.693 296.667,355.508 296.667 C 353.493 296.667,352.474 296.038,351.307 294.078 C 347.809 288.201,340.455 277.667,339.850 277.667 C 339.339 277.667,339.119 280.080,338.801 289.167 C 338.564 295.921,338.301 296.667,336.160 296.667 C 333.947 296.667,333.969 296.827,334.361 283.479 C 334.554 276.891,334.862 271.106,335.046 270.624 C 335.617 269.128,338.216 268.505,340.171 269.396 M50.974 270.219 C 51.754 270.765,51.760 270.819,51.541 274.926 C 51.187 281.547,51.712 281.538,56.144 274.842 C 59.816 269.295,59.195 269.667,64.794 269.667 C 70.950 269.667,71.198 270.044,67.898 274.395 C 64.472 278.911,62.667 281.554,62.667 282.053 C 62.667 282.520,63.919 284.740,67.880 291.297 C 70.836 296.190,70.527 296.509,63.060 296.285 C 58.163 296.139,58.577 296.477,55.293 289.919 C 51.534 282.413,50.963 282.423,50.666 290.005 C 50.428 296.114,50.529 295.966,46.440 296.231 C 39.871 296.656,39.075 296.083,39.840 291.483 C 40.113 289.842,40.485 285.125,40.666 281.000 C 41.103 271.068,41.152 270.624,41.863 270.104 C 42.809 269.412,49.951 269.503,50.974 270.219 M80.629 270.295 C 81.092 270.758,81.322 271.658,81.503 273.712 C 82.237 282.040,83.416 282.593,85.223 275.457 C 86.736 269.487,86.526 269.667,91.973 269.667 C 97.272 269.667,97.226 269.636,97.816 273.505 C 98.932 280.818,99.911 283.101,100.703 280.236 C 100.916 279.465,101.370 277.880,101.712 276.715 C 102.054 275.550,102.334 274.350,102.335 274.048 C 102.346 270.758,103.616 269.667,107.433 269.667 C 112.310 269.667,112.248 269.177,108.834 280.667 C 106.992 286.868,105.333 292.758,105.333 293.099 C 105.333 295.373,103.461 296.334,99.034 296.331 C 93.352 296.328,92.987 296.049,92.345 291.213 C 91.632 285.849,90.428 284.995,89.343 289.083 C 87.368 296.522,87.796 296.019,83.256 296.230 C 77.253 296.510,76.707 296.178,76.026 291.833 C 75.486 288.382,74.422 282.114,73.490 276.885 C 72.191 269.601,72.160 269.667,76.857 269.667 C 79.492 269.667,80.102 269.768,80.629 270.295 M228.125 273.150 C 227.288 273.736,226.690 279.059,227.369 279.876 C 227.909 280.526,233.045 280.500,234.320 279.840 C 236.555 278.684,237.505 275.529,236.022 274.187 C 234.456 272.769,229.582 272.130,228.125 273.150 M312.925 273.385 C 304.123 276.454,304.889 290.786,313.958 292.699 C 320.984 294.181,325.835 290.083,325.832 282.667 C 325.829 274.677,320.405 270.777,312.925 273.385 M119.540 273.750 C 118.909 274.746,118.118 291.586,118.676 292.140 C 119.491 292.949,126.735 292.541,128.709 291.576 C 136.295 287.864,136.342 275.248,128.776 273.467 C 125.411 272.676,120.118 272.838,119.540 273.750 M234.159 273.784 C 236.973 274.632,236.942 277.778,234.105 279.281 C 232.943 279.897,228.118 279.788,227.869 279.140 C 227.398 277.911,228.070 273.954,228.801 273.658 C 229.805 273.252,232.613 273.318,234.159 273.784 M320.157 273.843 C 327.523 276.078,327.117 289.590,319.617 291.817 C 313.779 293.551,308.660 290.975,307.692 285.815 C 306.083 277.235,312.145 271.413,320.157 273.843 M128.619 273.976 C 135.714 275.347,135.574 287.563,128.423 291.023 C 125.254 292.557,117.865 292.233,118.871 290.605 C 118.987 290.418,119.183 286.770,119.306 282.499 C 119.470 276.808,119.648 274.591,119.972 274.200 C 120.472 273.598,125.931 273.457,128.619 273.976 M203.556 274.520 C 204.083 275.241,204.141 277.447,203.657 278.352 C 203.015 279.552,197.890 281.241,196.400 280.744 C 195.881 280.572,195.855 275.226,196.368 274.268 C 196.879 273.314,202.827 273.523,203.556 274.520 M227.067 285.067 C 226.811 285.322,226.667 286.622,226.667 288.667 C 226.667 292.654,226.678 292.667,230.411 292.667 C 235.894 292.667,238.422 290.050,236.510 286.353 C 235.707 284.799,228.338 283.795,227.067 285.067 M235.577 286.072 C 236.177 286.636,236.333 287.145,236.333 288.535 C 236.333 291.161,235.302 291.795,230.797 291.946 C 226.795 292.079,226.904 292.195,227.215 288.157 L 227.429 285.368 228.464 285.217 C 230.877 284.865,234.793 285.336,235.577 286.072 " stroke="none" fill="#f4ebc9" fill-rule="evenodd"></path></g></svg>